<?xml version="1.0" encoding="utf-8"?>
<!-- Generator: Adobe Illustrator 27.5.0, SVG Export Plug-In . SVG Version: 6.00 Build 0)  -->
<svg version="1.1" id="Layer_1" xmlns="http://www.w3.org/2000/svg" xmlns:xlink="http://www.w3.org/1999/xlink" x="0px" y="0px"
	 viewBox="0 0 2272.046 2000" style="enable-background:new 0 0 2272.046 2000;" xml:space="preserve">
<g>
	<rect x="0.001" y="0" style="fill:#FFFFFF;" width="2272.045" height="2000"/>
	<g>
		<path style="fill:#C8C7D6;" d="M1993.434,1835.953H338.221c-14.99,0-27.142-12.153-27.142-27.143l0,0
			c0-8.382,6.795-15.178,15.178-15.178h1667.177c8.383,0,15.179,6.796,15.179,15.178v11.965
			C2008.612,1829.157,2001.816,1835.953,1993.434,1835.953z"/>
		<g>
			<g>
				<g>
					<defs>
						<path id="SVGID_1_" d="M1194.553,259.865c-561.624,107.743-797.944,239.584-841.83,690.125
							c-31.998,328.487-389.911,808.375,325.88,768.562c883.016-49.112,833.14-190.688,1152.987-532.891
							C2201.205,790.21,2119.06,82.504,1194.553,259.865z"/>
					</defs>
					<clipPath id="SVGID_00000022521863276931107910000002038227364112239251_">
						<use xlink:href="#SVGID_1_"  style="overflow:visible;"/>
					</clipPath>
					<g style="clip-path:url(#SVGID_00000022521863276931107910000002038227364112239251_);">
						<rect x="178.398" y="82.504" style="fill:#91C7F5;" width="2032.308" height="1694.629"/>
						<rect x="178.398" y="571.179" style="fill:#FFFFFF;" width="2032.308" height="47.352"/>
						<rect x="178.398" y="571.179" style="fill:#3C58A3;" width="2032.308" height="17.604"/>
						<rect x="178.398" y="1069.307" style="fill:#FFFFFF;" width="2032.308" height="47.343"/>
						<rect x="178.398" y="1069.307" style="fill:#3C58A3;" width="2032.308" height="17.604"/>
						<rect x="178.398" y="1558.098" style="fill:#FFFFFF;" width="2032.308" height="47.031"/>
						<rect x="178.398" y="1558.098" style="fill:#3C58A3;" width="2032.308" height="17.604"/>
						<g>
							<rect x="1416.08" y="1185.661" style="fill:#0086F5;" width="199.294" height="186.218"/>
							<rect x="1416.08" y="1200.265" style="fill:#3BA1F5;" width="199.294" height="12.981"/>
							<path style="fill:#3BA1F5;" d="M1606.109,1185.661c2.677,11.378,4.224,23.384,4.11,35.793
								c-1.012,111.176-48.802,150.425-109.001,150.425c-34.451,0-85.139,0-85.139,0h199.294v-186.218H1606.109z"/>
						</g>
						<g>
							<rect x="1416.08" y="1371.879" style="fill:#0086F5;" width="199.294" height="186.217"/>
							<rect x="1416.08" y="1386.482" style="fill:#3BA1F5;" width="199.294" height="12.981"/>
							<path style="fill:#3BA1F5;" d="M1606.109,1371.879c2.677,11.377,4.224,23.384,4.11,35.792
								c-1.012,111.176-48.802,150.425-109.001,150.425c-34.451,0-85.139,0-85.139,0h199.294v-186.217H1606.109z"/>
						</g>
						<g>
							<rect x="1615.374" y="1185.661" style="fill:#0086F5;" width="199.293" height="186.218"/>
							<rect x="1615.374" y="1200.265" style="fill:#3BA1F5;" width="199.293" height="12.981"/>
							<path style="fill:#3BA1F5;" d="M1805.402,1185.661c2.677,11.378,4.224,23.384,4.111,35.793
								c-1.012,111.176-48.802,150.425-109.001,150.425c-34.451,0-85.139,0-85.139,0h199.293v-186.218H1805.402z"/>
						</g>
						<g>
							<rect x="1615.374" y="1371.879" style="fill:#0086F5;" width="199.293" height="186.217"/>
							<rect x="1615.374" y="1386.482" style="fill:#3BA1F5;" width="199.293" height="12.981"/>
							<path style="fill:#3BA1F5;" d="M1805.402,1371.879c2.677,11.377,4.224,23.384,4.111,35.792
								c-1.012,111.176-48.802,150.425-109.001,150.425c-34.451,0-85.139,0-85.139,0h199.293v-186.217H1805.402z"/>
						</g>
						<g>
							<rect x="1814.667" y="1185.661" style="fill:#0086F5;" width="199.294" height="186.218"/>
							<rect x="1814.667" y="1200.265" style="fill:#3BA1F5;" width="199.294" height="12.981"/>
							<path style="fill:#3BA1F5;" d="M2004.696,1185.661c2.677,11.378,4.224,23.384,4.11,35.793
								c-1.012,111.176-48.801,150.425-109.001,150.425c-34.451,0-85.139,0-85.139,0h199.294v-186.218H2004.696z"/>
						</g>
						<g>
							<rect x="1814.667" y="1371.879" style="fill:#0086F5;" width="199.294" height="186.217"/>
							<rect x="1814.667" y="1386.482" style="fill:#3BA1F5;" width="199.294" height="12.981"/>
							<path style="fill:#3BA1F5;" d="M2004.696,1371.879c2.677,11.377,4.224,23.384,4.11,35.792
								c-1.012,111.176-48.801,150.425-109.001,150.425c-34.451,0-85.139,0-85.139,0h199.294v-186.217H2004.696z"/>
						</g>
						<g>
							<rect x="1711.155" y="1575.701" style="fill:#D8170E;" width="60.617" height="29.547"/>
						</g>
						<g>
							<rect x="1554.906" y="1086.911" style="fill:#D8170E;" width="60.617" height="29.546"/>
						</g>
						<g>
							<rect x="1943.929" y="1086.911" style="fill:#D8170E;" width="60.617" height="29.546"/>
						</g>
						<path style="fill:#0086F5;" d="M693.785,941.776c-0.266-0.488-0.554-0.963-0.863-1.421c-1.238-1.833-2.821-3.416-4.654-4.654
							c-2.75-1.858-6.065-2.943-9.635-2.943h1.211v-9.128c0-1.131-0.917-2.049-2.049-2.049h-4.916h-23.4h-30.492
							c9.517,0,17.232-7.715,17.232-17.232v-9.594v-74.267v-18.225c0-9.517-7.715-17.232-17.232-17.232h1.211v-9.128
							c0-1.132-0.917-2.049-2.049-2.049h-4.916h-23.4h-43.219h-6.706c-1.132,0-2.049,0.917-2.049,2.049v9.128h1.211
							c-9.517,0-17.232,7.714-17.232,17.232c0-9.517-7.715-17.232-17.231-17.232h1.211v-9.128c0-1.132-0.918-2.049-2.049-2.049
							h-4.915h-23.4h-43.219h-6.706c-1.132,0-2.049,0.917-2.049,2.049v9.128h1.211c-9.517,0-17.232,7.714-17.232,17.232
							c0-9.517-7.715-17.232-17.232-17.232h1.211v-9.128c0-1.132-0.917-2.049-2.049-2.049h-4.915h-23.4h-43.219h-6.706
							c-1.132,0-2.049,0.917-2.049,2.049v9.128h1.21c-9.517,0-17.232,7.714-17.232,17.232v18.225v57.447v16.82v9.594
							c0,3.569,1.085,6.884,2.943,9.635c1.238,1.833,2.821,3.415,4.654,4.654c0.458,0.31,0.933,0.598,1.421,0.863
							c0.977,0.531,2.01,0.97,3.089,1.305c1.619,0.503,3.339,0.775,5.124,0.775h-3.971h-43.219h-6.707
							c-1.131,0-2.049,0.917-2.049,2.049v9.128h1.211c-9.517,0-17.232,7.715-17.232,17.231v18.225v57.447v16.82v9.594
							c0,1.784,0.271,3.505,0.774,5.124c0.336,1.079,0.774,2.113,1.305,3.09c0.265,0.488,0.554,0.962,0.863,1.42
							c2.478,3.667,6.33,6.329,10.816,7.248c1.122,0.229,2.283,0.349,3.473,0.349h79.918c3.568,0,6.884-1.085,9.634-2.943
							c1.834-1.238,3.416-2.82,4.654-4.654c0.31-0.458,0.598-0.932,0.863-1.42c0.531-0.976,0.97-2.011,1.305-3.09
							c0.503-1.619,0.775-3.34,0.775-5.124c0,1.784,0.272,3.505,0.774,5.124c0.336,1.079,0.774,2.113,1.305,3.09
							c0.265,0.488,0.553,0.962,0.863,1.42c1.239,1.834,2.821,3.416,4.654,4.654c2.751,1.858,6.066,2.943,9.634,2.943h79.918
							c3.569,0,6.884-1.085,9.634-2.943c1.834-1.238,3.416-2.82,4.654-4.654c0.31-0.458,0.598-0.932,0.863-1.42
							c0.531-0.976,0.97-2.011,1.305-3.09c0.504-1.619,0.775-3.34,0.775-5.124c0,1.784,0.271,3.505,0.775,5.124
							c0.336,1.079,0.774,2.113,1.305,3.09c0.266,0.488,0.554,0.962,0.863,1.42c1.239,1.834,2.821,3.416,4.654,4.654
							c0.459,0.311,0.933,0.599,1.421,0.863c0.977,0.531,2.01,0.97,3.09,1.306c1.619,0.503,3.34,0.774,5.124,0.774h79.918
							c3.569,0,6.884-1.085,9.634-2.943c1.833-1.238,3.416-2.82,4.654-4.654c0.31-0.458,0.598-0.932,0.863-1.42
							c0.53-0.976,0.97-2.011,1.305-3.09c0.504-1.619,0.775-3.34,0.775-5.124c0,1.784,0.271,3.505,0.775,5.124
							c0.336,1.079,0.774,2.113,1.305,3.09c0.266,0.488,0.554,0.962,0.863,1.42c1.239,1.834,2.821,3.416,4.654,4.654
							c0.458,0.311,0.933,0.599,1.421,0.863c0.977,0.531,2.011,0.97,3.09,1.306c1.618,0.503,3.339,0.774,5.124,0.774h79.917
							c3.569,0,6.885-1.085,9.635-2.943c1.833-1.238,3.416-2.82,4.654-4.654c0.31-0.458,0.598-0.932,0.863-1.42
							c0.53-0.976,0.969-2.011,1.305-3.09c0.504-1.619,0.775-3.34,0.775-5.124v-9.594v-74.267v-18.225
							c0-1.785-0.271-3.505-0.775-5.124C694.754,943.786,694.315,942.752,693.785,941.776z M334.652,921.581h36.14
							c-1.132,0-2.049,0.917-2.049,2.049v9.128h1.211c-9.517,0-17.231,7.715-17.231,17.231c0-1.785-0.271-3.505-0.775-5.124
							c-0.336-1.079-0.774-2.113-1.305-3.089c-0.265-0.488-0.553-0.963-0.863-1.421c-1.238-1.833-2.82-3.416-4.654-4.654
							c-2.75-1.858-6.065-2.943-9.634-2.943h1.21v-9.128C336.702,922.498,335.784,921.581,334.652,921.581z M597.505,923.629v9.128
							h1.211c-9.516,0-17.232,7.715-17.232,17.231c0-1.785-0.271-3.505-0.775-5.124c-0.335-1.079-0.774-2.113-1.305-3.089
							c-0.266-0.488-0.554-0.963-0.863-1.421c-1.238-1.833-2.821-3.416-4.654-4.654c-2.75-1.858-6.065-2.943-9.634-2.943h1.211
							v-9.128c0-1.131-0.917-2.049-2.049-2.049h36.14C598.422,921.581,597.505,922.498,597.505,923.629z M465.023,941.776
							c-0.265-0.488-0.554-0.963-0.863-1.421c-1.238-1.833-2.82-3.416-4.654-4.654c-2.75-1.858-6.065-2.943-9.634-2.943h1.211
							v-9.128c0-1.131-0.917-2.049-2.049-2.049h36.14c-1.131,0-2.049,0.917-2.049,2.049v9.128h1.211
							c-9.517,0-17.232,7.715-17.232,17.231c0-1.785-0.271-3.505-0.775-5.124C465.993,943.786,465.554,942.752,465.023,941.776z
							 M420.718,921.581h-30.492c9.517,0,17.232-7.715,17.232-17.232c0,9.517,7.715,17.232,17.232,17.232H420.718z M535.099,921.581
							h-30.492c9.517,0,17.231-7.715,17.231-17.232c0,9.517,7.715,17.232,17.232,17.232H535.099z"/>
						<path style="fill:#0086F5;" d="M1380.069,941.776c-0.265-0.488-0.554-0.963-0.863-1.421c-1.238-1.833-2.82-3.416-4.654-4.654
							c-2.75-1.858-6.065-2.943-9.634-2.943h1.211v-9.128c0-1.131-0.918-2.049-2.05-2.049h-4.915h-23.4h-30.492
							c9.518,0,17.232-7.715,17.232-17.232v-9.594v-74.267v-18.225c0-9.517-7.715-17.232-17.232-17.232h1.211v-9.128
							c0-1.132-0.917-2.049-2.049-2.049h-4.916h-23.4h-43.219h-6.706c-1.132,0-2.049,0.917-2.049,2.049v9.128h1.211
							c-9.517,0-17.231,7.714-17.231,17.232c0-9.517-7.715-17.232-17.232-17.232h1.211v-9.128c0-1.132-0.917-2.049-2.049-2.049
							h-4.915h-23.4h-43.219h-6.707c-1.131,0-2.049,0.917-2.049,2.049v9.128h1.211c-9.517,0-17.232,7.714-17.232,17.232
							c0-9.517-7.715-17.232-17.232-17.232h1.211v-9.128c0-1.132-0.917-2.049-2.049-2.049h-4.915h-23.401h-43.219h-6.706
							c-1.132,0-2.049,0.917-2.049,2.049v9.128h1.211c-9.517,0-17.231,7.714-17.231,17.232c0-9.517-7.715-17.232-17.232-17.232
							h1.211v-9.128c0-1.132-0.917-2.049-2.049-2.049h-4.915h-23.4h-43.219h-6.707c-1.132,0-2.049,0.917-2.049,2.049v9.128h1.211
							c-9.517,0-17.231,7.714-17.231,17.232v18.225v57.447v16.82v9.594c0,9.517,7.715,17.232,17.231,17.232h-3.971h-43.219h-6.706
							c-1.132,0-2.049,0.917-2.049,2.049v9.128h1.211c-9.517,0-17.232,7.715-17.232,17.231v18.225v57.447v16.82v9.594
							c0,1.784,0.271,3.505,0.775,5.124c0.336,1.079,0.774,2.113,1.305,3.09c0.265,0.488,0.554,0.962,0.863,1.42
							c1.238,1.834,2.821,3.416,4.654,4.654c2.75,1.858,6.065,2.943,9.635,2.943h79.917c3.569,0,6.884-1.085,9.635-2.943
							c1.833-1.238,3.416-2.82,4.654-4.654c0.31-0.458,0.598-0.932,0.863-1.42c0.531-0.976,0.969-2.011,1.305-3.09
							c0.503-1.619,0.774-3.34,0.774-5.124c0,1.784,0.272,3.505,0.775,5.124c0.335,1.079,0.775,2.113,1.305,3.09
							c0.266,0.488,0.554,0.962,0.863,1.42c1.238,1.834,2.821,3.416,4.654,4.654c0.458,0.311,0.933,0.599,1.421,0.863
							c0.977,0.531,2.01,0.97,3.089,1.306c1.619,0.503,3.339,0.774,5.124,0.774h79.917c3.569,0,6.884-1.085,9.634-2.943
							c1.833-1.238,3.416-2.82,4.655-4.654c0.31-0.458,0.598-0.932,0.863-1.42c0.53-0.976,0.969-2.011,1.305-3.09
							c0.503-1.618,0.775-3.339,0.775-5.123c0,1.784,0.271,3.505,0.775,5.123c0.335,1.079,0.775,2.113,1.305,3.09
							c0.265,0.488,0.553,0.962,0.863,1.42c1.238,1.834,2.821,3.416,4.654,4.654c0.458,0.311,0.933,0.599,1.421,0.863
							c0.977,0.531,2.01,0.97,3.089,1.306c1.619,0.503,3.34,0.774,5.125,0.774h79.917c3.568,0,6.884-1.085,9.635-2.943
							c1.833-1.238,3.415-2.82,4.654-4.654c0.309-0.458,0.598-0.932,0.863-1.42c0.529-0.976,0.969-2.011,1.305-3.09
							c0.503-1.619,0.774-3.34,0.774-5.124c0,1.784,0.271,3.505,0.774,5.124c0.336,1.079,0.775,2.113,1.306,3.09
							c0.265,0.488,0.554,0.962,0.863,1.42c1.238,1.834,2.82,3.416,4.654,4.654c2.75,1.858,6.065,2.943,9.634,2.943h79.918
							c3.568,0,6.884-1.085,9.635-2.943c1.833-1.238,3.415-2.82,4.654-4.654c0.309-0.458,0.598-0.932,0.862-1.42
							c0.531-0.976,0.97-2.011,1.306-3.09c0.503-1.619,0.774-3.34,0.774-5.124c0,1.784,0.271,3.505,0.774,5.124
							c0.336,1.079,0.775,2.113,1.306,3.09c0.265,0.488,0.554,0.962,0.862,1.42c1.239,1.834,2.821,3.416,4.655,4.654
							c2.75,1.858,6.065,2.943,9.634,2.943h79.918c3.568,0,6.884-1.085,9.634-2.943c1.834-1.238,3.416-2.82,4.654-4.654
							c0.31-0.458,0.599-0.932,0.863-1.42c0.53-0.976,0.97-2.011,1.306-3.09c0.503-1.619,0.774-3.34,0.774-5.124v-9.594v-74.267
							v-18.225c0-1.785-0.271-3.505-0.774-5.124C1381.039,943.786,1380.6,942.752,1380.069,941.776z M906.557,921.581h36.14
							c-1.132,0-2.049,0.917-2.049,2.049v9.128h1.211c-9.517,0-17.232,7.715-17.232,17.231c0-1.785-0.271-3.505-0.774-5.124
							c-0.336-1.079-0.774-2.113-1.305-3.089c-0.265-0.488-0.553-0.963-0.863-1.421c-1.239-1.833-2.821-3.416-4.654-4.654
							c-2.75-1.858-6.066-2.943-9.635-2.943h1.211v-9.128C908.606,922.498,907.688,921.581,906.557,921.581z M1283.789,923.629
							v9.128H1285c-9.517,0-17.231,7.715-17.231,17.231c0-1.785-0.271-3.505-0.774-5.124c-0.336-1.079-0.774-2.113-1.306-3.089
							c-0.265-0.488-0.554-0.963-0.862-1.421c-1.239-1.833-2.821-3.416-4.654-4.654c-2.751-1.858-6.066-2.943-9.635-2.943h1.211
							v-9.128c0-1.131-0.918-2.049-2.049-2.049h36.139C1284.707,921.581,1283.789,922.498,1283.789,923.629z M1151.309,941.776
							c-0.266-0.488-0.555-0.963-0.863-1.421c-1.239-1.833-2.821-3.416-4.654-4.654c-2.751-1.858-6.066-2.943-9.635-2.943h1.211
							v-9.128c0-1.131-0.917-2.049-2.049-2.049h36.14c-1.132,0-2.05,0.917-2.05,2.049v9.128h1.211
							c-9.517,0-17.231,7.715-17.231,17.231c0-1.785-0.271-3.505-0.774-5.124C1152.277,943.786,1151.838,942.752,1151.309,941.776z
							 M1107.002,921.581h-30.492c9.517,0,17.232-7.715,17.232-17.232c0,3.569,1.084,6.884,2.942,9.635
							c1.239,1.833,2.821,3.415,4.654,4.654c0.458,0.31,0.933,0.598,1.421,0.863c0.977,0.531,2.011,0.97,3.09,1.305
							c1.618,0.503,3.339,0.775,5.124,0.775H1107.002z M1055.028,923.629v9.128h1.211c-9.517,0-17.231,7.714-17.232,17.231
							c0-1.784-0.271-3.504-0.775-5.123c-0.336-1.079-0.774-2.113-1.305-3.089c-0.266-0.488-0.554-0.963-0.863-1.421
							c-1.239-1.833-2.821-3.416-4.655-4.654c-2.75-1.858-6.065-2.943-9.634-2.943h1.211v-9.128c0-1.131-0.917-2.049-2.049-2.049
							h36.14C1055.945,921.581,1055.028,922.498,1055.028,923.629z M992.621,921.581h-30.492c9.517,0,17.232-7.715,17.232-17.232
							c0,3.569,1.085,6.884,2.943,9.635c1.239,1.833,2.821,3.415,4.654,4.654c0.458,0.31,0.932,0.598,1.42,0.863
							c0.977,0.531,2.011,0.97,3.09,1.305c1.619,0.503,3.34,0.775,5.124,0.775H992.621z M1221.383,921.581h-30.492
							c9.518,0,17.232-7.715,17.232-17.232c0,9.517,7.715,17.232,17.231,17.232H1221.383z"/>
						<path style="fill:#0086F5;" d="M1756.011,944.865c-0.335-1.079-0.774-2.113-1.305-3.089c-0.266-0.488-0.554-0.963-0.863-1.421
							c-1.238-1.833-2.821-3.416-4.654-4.654c-2.75-1.858-6.065-2.943-9.634-2.943h1.21v-9.128c0-1.131-0.917-2.049-2.049-2.049
							h-4.915h-23.4h-30.492c9.517,0,17.231-7.715,17.231-17.232v-9.594v-74.267v-18.225c0-9.517-7.715-17.232-17.231-17.232h1.211
							v-9.128c0-1.132-0.918-2.049-2.049-2.049h-4.916h-23.4h-43.219h-6.706c-1.132,0-2.05,0.917-2.05,2.049v9.128h1.211
							c-9.517,0-17.232,7.714-17.232,17.232c0-9.517-7.715-17.232-17.231-17.232h1.211v-9.128c0-1.132-0.918-2.049-2.049-2.049
							h-4.916h-23.401h-43.219h-6.706c-1.132,0-2.049,0.917-2.049,2.049v9.128h1.21c-9.516,0-17.23,7.714-17.23,17.232v18.225
							v57.447v16.82v9.594c0,9.517,7.715,17.232,17.23,17.232h-3.971h-43.219h-6.707c-1.131,0-2.049,0.917-2.049,2.049v9.128h1.211
							c-9.517,0-17.231,7.715-17.231,17.231v18.225v57.447v16.82v9.594c0,1.784,0.271,3.505,0.774,5.124
							c0.336,1.079,0.775,2.113,1.306,3.09c0.265,0.488,0.553,0.962,0.862,1.42c1.239,1.834,2.821,3.416,4.654,4.654
							c2.751,1.858,6.066,2.943,9.635,2.943h79.918c3.568,0,6.884-1.085,9.634-2.943c1.834-1.238,3.416-2.82,4.654-4.654
							c0.31-0.458,0.599-0.932,0.863-1.42c0.53-0.976,0.97-2.011,1.306-3.09c0.503-1.619,0.774-3.34,0.774-5.124
							c0,1.784,0.271,3.505,0.774,5.124c0.336,1.079,0.774,2.113,1.305,3.09c0.266,0.488,0.554,0.962,0.863,1.42
							c1.239,1.834,2.821,3.416,4.654,4.654c0.459,0.311,0.933,0.599,1.421,0.863c0.978,0.531,2.011,0.97,3.09,1.306
							c1.618,0.503,3.34,0.774,5.124,0.774h79.918c3.568,0,6.884-1.085,9.634-2.943c1.834-1.238,3.416-2.82,4.654-4.654
							c0.31-0.458,0.599-0.932,0.863-1.42c0.53-0.976,0.97-2.011,1.306-3.09c0.503-1.619,0.774-3.34,0.774-5.124
							c0,1.784,0.271,3.505,0.774,5.124c0.336,1.079,0.774,2.113,1.305,3.09c0.266,0.488,0.554,0.962,0.863,1.42
							c1.238,1.834,2.821,3.416,4.654,4.654c2.75,1.858,6.066,2.943,9.635,2.943h79.918c3.568,0,6.884-1.085,9.634-2.943
							c1.833-1.238,3.416-2.82,4.654-4.654c0.31-0.458,0.598-0.932,0.863-1.42c0.53-0.976,0.97-2.011,1.305-3.09
							c0.504-1.619,0.776-3.34,0.776-5.124v-9.594v-74.267v-18.225C1756.786,948.205,1756.515,946.484,1756.011,944.865z
							 M1509.954,921.581h36.14c-1.131,0-2.049,0.917-2.049,2.049v9.128h1.211c-9.517,0-17.231,7.715-17.231,17.231
							c0-1.785-0.271-3.505-0.774-5.124c-0.336-1.079-0.775-2.113-1.306-3.089c-0.265-0.488-0.554-0.963-0.863-1.421
							c-1.238-1.833-2.82-3.416-4.654-4.654c-2.75-1.858-6.065-2.943-9.634-2.943h1.211v-9.128
							C1512.004,922.498,1511.086,921.581,1509.954,921.581z M1658.426,923.629v9.128h1.211c-9.517,0-17.231,7.715-17.231,17.231
							c0-1.785-0.271-3.505-0.774-5.124c-0.336-1.079-0.775-2.113-1.306-3.089c-0.265-0.488-0.554-0.963-0.863-1.421
							c-1.238-1.833-2.82-3.416-4.654-4.654c-2.75-1.858-6.065-2.943-9.634-2.943h1.211v-9.128c0-1.131-0.918-2.049-2.05-2.049
							h36.14C1659.344,921.581,1658.426,922.498,1658.426,923.629z M1596.02,921.581h-30.492c9.517,0,17.231-7.715,17.231-17.232
							c0,3.569,1.085,6.884,2.943,9.635c1.238,1.833,2.821,3.415,4.654,4.654c0.458,0.31,0.933,0.598,1.421,0.863
							c0.977,0.531,2.01,0.97,3.089,1.305c1.619,0.503,3.34,0.775,5.124,0.775H1596.02z"/>
						<path style="fill:#0086F5;" d="M2145.034,944.865c-0.336-1.079-0.774-2.113-1.306-3.089c-0.266-0.488-0.554-0.963-0.863-1.421
							c-1.238-1.833-2.82-3.416-4.654-4.654c-2.75-1.858-6.065-2.943-9.634-2.943h1.211v-9.128c0-1.131-0.918-2.049-2.05-2.049
							h-4.915h-23.4h-30.492c9.517,0,17.231-7.715,17.231-17.232v-9.594v-74.267v-18.225c0-9.517-7.715-17.232-17.231-17.232h1.211
							v-9.128c0-1.132-0.917-2.049-2.049-2.049h-4.915h-23.4h-43.219h-6.707c-1.132,0-2.049,0.917-2.049,2.049v9.128h1.211
							c-9.517,0-17.232,7.714-17.232,17.232c0-9.517-7.714-17.232-17.231-17.232h1.211v-9.128c0-1.132-0.917-2.049-2.049-2.049
							h-4.915h-23.4h-43.219h-6.707c-1.132,0-2.049,0.917-2.049,2.049v9.128h1.211c-9.517,0-17.231,7.714-17.231,17.232v18.225
							v57.447v16.82v9.594c0,9.517,7.715,17.232,17.231,17.232h-3.972h-43.219h-6.706c-1.132,0-2.049,0.917-2.049,2.049v9.128h1.21
							c-9.517,0-17.231,7.715-17.231,17.231v18.225v57.447v16.82v9.594c0,1.784,0.271,3.505,0.775,5.124
							c0.335,1.079,0.773,2.113,1.305,3.09c0.266,0.488,0.554,0.962,0.863,1.42c1.238,1.834,2.82,3.416,4.654,4.654
							c2.75,1.858,6.065,2.943,9.634,2.943h79.918c3.568,0,6.884-1.085,9.634-2.943c1.834-1.238,3.416-2.82,4.655-4.654
							c0.31-0.458,0.598-0.932,0.862-1.42c0.531-0.976,0.97-2.011,1.306-3.09c0.503-1.619,0.774-3.34,0.774-5.124
							c0,1.784,0.271,3.505,0.774,5.124c0.336,1.079,0.774,2.113,1.306,3.09c0.265,0.488,0.553,0.962,0.863,1.42
							c1.238,1.834,2.82,3.416,4.654,4.654c0.458,0.311,0.932,0.599,1.42,0.863c0.978,0.531,2.011,0.97,3.09,1.306
							c1.619,0.503,3.34,0.774,5.124,0.774h79.918c3.568,0,6.884-1.085,9.634-2.943c1.834-1.238,3.416-2.82,4.654-4.654
							c0.311-0.458,0.599-0.932,0.863-1.42c0.531-0.976,0.97-2.011,1.306-3.09c0.503-1.619,0.775-3.34,0.775-5.124
							c0,1.784,0.271,3.505,0.774,5.124c0.336,1.079,0.774,2.113,1.306,3.09c0.265,0.488,0.553,0.962,0.863,1.42
							c1.238,1.834,2.82,3.416,4.654,4.654c2.75,1.858,6.065,2.943,9.634,2.943h79.918c3.568,0,6.884-1.085,9.634-2.943
							c1.834-1.238,3.416-2.82,4.654-4.654c0.31-0.458,0.598-0.932,0.863-1.42c0.531-0.976,0.97-2.011,1.306-3.09
							c0.503-1.619,0.774-3.34,0.774-5.124v-9.594v-74.267v-18.225C2145.809,948.205,2145.537,946.484,2145.034,944.865z
							 M1898.977,921.581h36.141c-1.132,0-2.05,0.917-2.05,2.049v9.128h1.211c-9.517,0-17.231,7.715-17.231,17.231
							c0-1.785-0.271-3.505-0.774-5.124c-0.336-1.079-0.774-2.113-1.306-3.089c-0.265-0.488-0.553-0.963-0.862-1.421
							c-1.239-1.833-2.821-3.416-4.655-4.654c-2.75-1.858-6.065-2.943-9.634-2.943h1.211v-9.128
							C1901.026,922.498,1900.108,921.581,1898.977,921.581z M2047.448,923.629v9.128h1.211c-9.517,0-17.231,7.715-17.231,17.231
							c0-1.785-0.272-3.505-0.775-5.124c-0.336-1.079-0.774-2.113-1.306-3.089c-0.265-0.488-0.553-0.963-0.863-1.421
							c-1.238-1.833-2.82-3.416-4.654-4.654c-2.75-1.858-6.065-2.943-9.634-2.943h1.211v-9.128c0-1.131-0.918-2.049-2.05-2.049
							h36.141C2048.366,921.581,2047.448,922.498,2047.448,923.629z M1985.042,921.581h-30.492c9.518,0,17.231-7.715,17.231-17.232
							c0,3.569,1.086,6.884,2.943,9.635c1.238,1.833,2.821,3.415,4.654,4.654c0.459,0.31,0.933,0.598,1.421,0.863
							c0.977,0.531,2.011,0.97,3.09,1.305c1.618,0.503,3.339,0.775,5.124,0.775H1985.042z"/>
						<g>
							<path style="fill:#0086F5;" d="M1188.968,452.826h-7.875l0,0H1070.27c-0.795,0-1.44,0.645-1.44,1.44v1.279v5.628v0
								c0,0.199,0.04,0.388,0.113,0.56c0.182,0.43,0.567,0.754,1.036,0.85c0.094,0.019,0.19,0.029,0.29,0.029l0,0h5.296
								l15.024,49.391h78.058l15.024-49.391h5.296l0,0c0.298,0,0.575-0.091,0.805-0.246c0.229-0.155,0.412-0.375,0.521-0.633
								c0.073-0.172,0.113-0.361,0.113-0.56v0v-6.907v-0.001C1190.407,453.471,1189.763,452.826,1188.968,452.826z"/>
							<path style="fill:#0086F5;" d="M1188.968,512.003h-7.875l0,0H1070.27c-0.795,0-1.44,0.645-1.44,1.439v1.279v5.628l0,0
								c0,0.199,0.04,0.388,0.113,0.56c0.073,0.172,0.178,0.327,0.309,0.457c0.195,0.196,0.446,0.335,0.728,0.393
								c0.094,0.019,0.19,0.029,0.29,0.029l0,0h5.296l15.024,49.391h78.058l15.024-49.391h5.296l0,0
								c0.298,0,0.575-0.091,0.805-0.246c0.077-0.052,0.147-0.111,0.213-0.176c0.131-0.13,0.235-0.285,0.309-0.457
								c0.073-0.172,0.113-0.362,0.113-0.56l0,0v-6.908l0,0C1190.407,512.647,1189.763,512.003,1188.968,512.003z"/>
						</g>
						<g>
							<path style="fill:#0086F5;" d="M1310.545,452.826h-7.875l0,0h-110.824c-0.794,0-1.438,0.645-1.438,1.44v1.279v5.628v0
								c0,0.199,0.04,0.388,0.113,0.56c0.218,0.517,0.729,0.879,1.325,0.879h5.297l15.024,49.391h78.058l15.024-49.391h5.296l0,0
								c0.298,0,0.575-0.091,0.805-0.246c0.229-0.155,0.412-0.375,0.521-0.633c0.072-0.172,0.113-0.361,0.113-0.56v0v-6.907v-0.001
								C1311.984,453.471,1311.34,452.826,1310.545,452.826z"/>
							<path style="fill:#0086F5;" d="M1310.545,512.003h-7.875l0,0h-110.824c-0.794,0-1.438,0.645-1.438,1.439v1.279v5.628l0,0
								c0,0.199,0.04,0.388,0.113,0.56c0.072,0.172,0.178,0.327,0.308,0.457c0.261,0.261,0.621,0.422,1.018,0.422h5.297
								l15.024,49.391h78.058l15.024-49.391h5.296l0,0c0.298,0,0.575-0.091,0.805-0.246c0.076-0.052,0.147-0.111,0.213-0.176
								c0.13-0.13,0.235-0.285,0.309-0.457c0.072-0.172,0.113-0.362,0.113-0.56l0,0v-6.908l0,0
								C1311.984,512.647,1311.34,512.003,1310.545,512.003z"/>
						</g>
						<g>
							<path style="fill:#0086F5;" d="M537.857,528.751c0.003-0.299,0.004-0.592,0.004-0.881c0-0.3-0.004-0.59-0.009-0.878
								c-0.003-0.211-0.005-0.426-0.011-0.63c-0.014-0.498-0.032-0.98-0.06-1.433c-0.426-6.967-0.963-13.928-1.613-20.879v-1.841
								l0,0c0-1.776-0.119-3.538-0.348-5.277c-0.306-2.32-0.809-4.602-1.492-6.829c-1.538-5.012-3.991-9.749-7.17-14.025
								c-0.966-1.301-1.765-2.703-2.385-4.175c-1.033-2.453-1.571-5.097-1.571-7.779v-6.101c0-2.705,0.548-5.381,1.61-7.869
								l1.625-3.803c1.583-3.706,2.605-7.588,3.066-11.523c0.153-1.311,0.245-2.629,0.273-3.948
								c0.014-0.659,0.012-1.319-0.005-1.978c-0.12-4.617-1.008-9.222-2.668-13.621l-13.563-35.951
								c-0.175-0.466-0.553-0.813-1.011-0.958c-0.152-0.048-0.314-0.074-0.48-0.074v-2.992h0.923c0.347,0,0.669-0.105,0.937-0.286
								c0.178-0.12,0.332-0.274,0.453-0.452c0.12-0.179,0.207-0.381,0.252-0.599c0.023-0.109,0.034-0.222,0.034-0.338l0,0v-10.889v0
								c0-0.115-0.012-0.229-0.034-0.337c-0.045-0.218-0.132-0.421-0.252-0.599c-0.121-0.178-0.274-0.332-0.453-0.453
								c-0.267-0.18-0.59-0.286-0.937-0.286h-3.83h-28.359c-0.925,0-1.675,0.75-1.675,1.675v10.889c0,0.925,0.75,1.675,1.675,1.675
								h0.923v2.992l0,0c-0.663,0-1.257,0.411-1.491,1.031l-13.563,35.949c-1.897,5.028-2.786,10.325-2.673,15.601
								c0.014,0.66,0.044,1.319,0.09,1.977c0.182,2.633,0.613,5.251,1.295,7.819c0.511,1.926,1.163,3.823,1.954,5.676l1.624,3.802
								c0.531,1.244,0.934,2.535,1.203,3.853c0.27,1.318,0.407,2.664,0.407,4.016v6.101c0,2.056-0.334,4.082-0.949,6.022
								c-0.522,1.645-1.242,3.228-2.165,4.707c-1.857,2.977-3.449,6.094-4.81,9.305c-2.174,5.126-3.725,10.503-4.566,16.024
								c-0.196,1.283-0.354,2.573-0.475,3.869l0,0c-0.615,6.586-1.123,13.181-1.538,19.782v0c-0.023,0.366-0.053,0.732-0.076,1.097
								c-0.027,0.453-0.046,0.935-0.06,1.433c-0.006,0.205-0.008,0.421-0.012,0.633c-0.004,0.286-0.008,0.575-0.008,0.873
								c0,0.125-0.004,0.239-0.004,0.366c0-0.126-0.003-0.239-0.003-0.362c0-0.3-0.004-0.59-0.008-0.878
								c-0.003-0.211-0.006-0.426-0.012-0.63c-0.013-0.498-0.032-0.98-0.06-1.433c-0.426-6.967-0.963-13.928-1.613-20.879v-1.841
								l0,0c0-1.776-0.118-3.538-0.347-5.277c-0.306-2.32-0.809-4.602-1.492-6.829c-1.538-5.012-3.992-9.749-7.17-14.025
								c-0.967-1.301-1.765-2.703-2.385-4.175c-1.033-2.453-1.572-5.097-1.572-7.779v-6.101c0-2.705,0.548-5.381,1.61-7.869
								l1.624-3.803c1.583-3.706,2.606-7.588,3.066-11.523c0.153-1.311,0.245-2.629,0.273-3.948
								c0.014-0.659,0.012-1.319-0.004-1.978c-0.12-4.617-1.008-9.222-2.668-13.621l-13.563-35.951
								c-0.175-0.466-0.554-0.813-1.011-0.958c-0.153-0.048-0.314-0.074-0.48-0.074v-2.992h0.923c0.347,0,0.669-0.105,0.936-0.286
								c0.179-0.12,0.332-0.274,0.453-0.452c0.121-0.179,0.208-0.381,0.252-0.599c0.022-0.109,0.034-0.222,0.034-0.338l0,0v-10.889
								v0c0-0.115-0.012-0.229-0.034-0.337c-0.044-0.218-0.131-0.421-0.252-0.599c-0.121-0.178-0.274-0.332-0.453-0.453
								c-0.268-0.18-0.59-0.286-0.936-0.286h-3.829h-28.359c-0.925,0-1.675,0.75-1.675,1.675v10.889c0,0.925,0.75,1.675,1.675,1.675
								h0.923v2.992l0,0c-0.664,0-1.257,0.411-1.491,1.031l-13.563,35.949c-1.897,5.028-2.786,10.325-2.672,15.601
								c0.014,0.66,0.044,1.319,0.089,1.977c0.182,2.633,0.614,5.251,1.295,7.819c0.511,1.926,1.163,3.823,1.954,5.676l1.623,3.802
								c0.532,1.244,0.934,2.535,1.204,3.853c0.27,1.318,0.407,2.664,0.407,4.016v6.101c0,2.056-0.333,4.082-0.949,6.022
								c-0.522,1.645-1.243,3.228-2.165,4.707c-1.857,2.977-3.448,6.094-4.81,9.305c-2.174,5.126-3.725,10.503-4.567,16.024
								c-0.196,1.283-0.354,2.573-0.475,3.869l0,0c-0.616,6.586-1.123,13.181-1.538,19.782v0c-0.023,0.366-0.053,0.732-0.076,1.097
								c-0.028,0.453-0.046,0.935-0.059,1.433c-0.006,0.205-0.008,0.421-0.012,0.633c-0.004,0.286-0.008,0.575-0.008,0.873
								c0,0.139-0.004,0.266-0.004,0.407c0,0.154,0.006,0.321,0.007,0.478c0.002,0.213,0.006,0.431,0.01,0.649
								c0.083,4.688,0.557,10.512,1.178,16.327c0.503,4.713,1.099,9.409,1.651,13.461c0.059,0.43,0.136,0.853,0.233,1.269
								c0.288,1.246,0.742,2.423,1.336,3.509c0.197,0.362,0.411,0.714,0.639,1.055c0.456,0.682,0.971,1.319,1.535,1.907
								c0.282,0.294,0.577,0.574,0.884,0.842c0.614,0.535,1.274,1.017,1.974,1.438c0.7,0.421,1.439,0.782,2.21,1.076
								c0.771,0.294,1.574,0.521,2.401,0.674c0.827,0.154,1.678,0.233,2.546,0.233h48.765c0.868,0,1.719-0.08,2.546-0.233
								c0.827-0.153,1.629-0.38,2.401-0.674c0.771-0.294,1.51-0.654,2.21-1.076c1.05-0.631,2.011-1.399,2.858-2.279
								c0.565-0.587,1.079-1.225,1.535-1.907c1.104-1.651,1.859-3.563,2.172-5.635c0.01-0.066,0.026-0.13,0.036-0.197
								c0.47-3.451,0.972-7.37,1.421-11.368c0.158-1.398,0.308-2.804,0.449-4.205c0.016-0.156,0.031-0.312,0.047-0.467
								c0.38-3.84,0.682-7.615,0.83-10.982c0.025-0.568,0.043-1.117,0.059-1.661l0,0c0,0,0-0.001,0-0.002
								c0.011-0.376,0.017-0.738,0.024-1.101c0.004-0.219,0.008-0.438,0.01-0.651c0.001-0.148,0.006-0.306,0.007-0.451
								c0.001,0.146,0.006,0.303,0.007,0.451c0.002,0.213,0.006,0.431,0.01,0.649c0.082,4.688,0.557,10.512,1.178,16.327
								c0.503,4.713,1.099,9.409,1.651,13.461c0.059,0.43,0.136,0.853,0.233,1.269c0.288,1.246,0.742,2.423,1.336,3.509
								c0.198,0.362,0.411,0.714,0.64,1.055c0.456,0.682,0.97,1.319,1.534,1.907c0.283,0.294,0.578,0.574,0.885,0.842
								c0.613,0.535,1.274,1.017,1.974,1.438c0.7,0.421,1.439,0.782,2.21,1.076c0.771,0.294,1.574,0.521,2.401,0.674
								c0.827,0.154,1.678,0.233,2.546,0.233h48.765c0.868,0,1.719-0.08,2.546-0.233c0.827-0.153,1.63-0.38,2.401-0.674
								c0.771-0.294,1.511-0.654,2.21-1.076c1.05-0.631,2.012-1.399,2.858-2.279c0.565-0.587,1.079-1.225,1.535-1.907
								c1.105-1.651,1.859-3.563,2.172-5.635c0.01-0.066,0.027-0.13,0.036-0.197c0.47-3.451,0.972-7.37,1.421-11.368
								c0.157-1.398,0.308-2.804,0.448-4.205c0.016-0.156,0.031-0.312,0.047-0.467c0.38-3.84,0.683-7.615,0.831-10.982
								c0.025-0.568,0.043-1.117,0.059-1.661l0,0c0,0,0-0.001,0-0.002c0.011-0.376,0.018-0.738,0.023-1.101
								C537.851,529.184,537.854,528.965,537.857,528.751z"/>
							<path style="fill:#0086F5;" d="M701.81,527.867c0-0.298-0.004-0.587-0.008-0.873c-0.002-0.154,0-0.32-0.004-0.47
								c-0.001-0.057-0.005-0.107-0.007-0.163c-0.014-0.498-0.032-0.98-0.06-1.433c-0.426-6.967-0.964-13.928-1.613-20.879v-1.841
								l0,0c0-1.776-0.118-3.538-0.347-5.277c-0.305-2.32-0.809-4.602-1.492-6.829c-1.539-5.012-3.992-9.749-7.17-14.025
								c-0.966-1.301-1.765-2.703-2.384-4.175c-1.033-2.453-1.572-5.097-1.572-7.779v-6.101c0-2.705,0.548-5.381,1.61-7.869
								l1.624-3.803c1.583-3.706,2.606-7.588,3.066-11.523c0.153-1.311,0.244-2.629,0.272-3.948
								c0.014-0.659,0.013-1.319-0.004-1.978c-0.12-4.617-1.008-9.222-2.667-13.621l-13.563-35.951
								c-0.117-0.311-0.324-0.568-0.585-0.749c-0.261-0.18-0.575-0.283-0.906-0.283v-2.992h0.922c0.232,0,0.452-0.047,0.652-0.131
								c0.1-0.042,0.195-0.094,0.285-0.155c0.178-0.12,0.332-0.274,0.452-0.452c0.121-0.179,0.208-0.381,0.252-0.599
								c0.022-0.109,0.034-0.222,0.034-0.338l0,0v-10.889v0c0-0.115-0.012-0.229-0.034-0.337c-0.044-0.218-0.131-0.421-0.252-0.599
								c-0.12-0.178-0.274-0.332-0.452-0.453c-0.089-0.06-0.185-0.112-0.285-0.154c-0.201-0.085-0.42-0.132-0.652-0.132h-3.829
								h-28.359c-0.926,0-1.676,0.75-1.676,1.675v10.889c0,0.925,0.75,1.675,1.676,1.675h0.922v2.992l0,0
								c-0.664,0-1.257,0.411-1.491,1.031l-13.563,35.949c-1.896,5.028-2.785,10.325-2.672,15.601
								c0.042,1.979,0.226,3.954,0.549,5.911c0.216,1.305,0.495,2.601,0.835,3.885c0.511,1.926,1.163,3.823,1.954,5.676l1.624,3.802
								c0.531,1.244,0.934,2.535,1.204,3.853c0.27,1.318,0.406,2.664,0.406,4.016v6.101c0,2.056-0.333,4.082-0.948,6.022
								c-0.522,1.645-1.243,3.228-2.165,4.707c-1.378,2.208-2.622,4.489-3.727,6.831c-2.766,5.854-4.671,12.085-5.649,18.499
								c-0.195,1.283-0.354,2.573-0.476,3.869l0,0c-0.615,6.586-1.122,13.181-1.537,19.782v0c-0.023,0.366-0.054,0.732-0.076,1.097
								c-0.028,0.453-0.046,0.935-0.06,1.433c-0.006,0.205-0.008,0.421-0.011,0.633c-0.005,0.286-0.008,0.575-0.009,0.873
								c0,0.123-0.004,0.237-0.003,0.363c0-0.126-0.003-0.24-0.003-0.363c0-0.298-0.004-0.587-0.009-0.873
								c-0.002-0.154-0.001-0.32-0.004-0.47c-0.002-0.057-0.006-0.107-0.007-0.163c-0.014-0.498-0.032-0.98-0.06-1.433
								c-0.427-6.967-0.964-13.928-1.613-20.879v-1.841l0,0c0-1.776-0.118-3.538-0.348-5.277c-0.306-2.32-0.809-4.602-1.492-6.829
								c-1.538-5.012-3.991-9.749-7.17-14.025c-0.966-1.301-1.765-2.703-2.384-4.175c-1.034-2.453-1.572-5.097-1.572-7.779v-6.101
								c0-2.705,0.548-5.381,1.61-7.869l1.624-3.803c1.583-3.706,2.605-7.588,3.066-11.523c0.153-1.311,0.245-2.629,0.273-3.948
								c0.014-0.659,0.013-1.319-0.005-1.978c-0.12-4.617-1.008-9.222-2.668-13.621l-13.563-35.951
								c-0.117-0.311-0.324-0.568-0.585-0.749c-0.261-0.18-0.575-0.283-0.906-0.283v-2.992h0.922c0.231,0,0.452-0.047,0.652-0.131
								c0.101-0.042,0.195-0.094,0.285-0.155c0.178-0.12,0.333-0.274,0.453-0.452c0.12-0.179,0.207-0.381,0.252-0.599
								c0.023-0.109,0.034-0.222,0.034-0.338l0,0v-10.889v0c0-0.115-0.012-0.229-0.034-0.337c-0.045-0.218-0.132-0.421-0.252-0.599
								c-0.12-0.178-0.274-0.332-0.453-0.453c-0.089-0.06-0.184-0.112-0.285-0.154c-0.2-0.085-0.421-0.132-0.652-0.132h-3.829
								h-28.36c-0.925,0-1.675,0.75-1.675,1.675v10.889c0,0.925,0.75,1.675,1.675,1.675h0.923v2.992l0,0
								c-0.663,0-1.257,0.411-1.491,1.031l-13.563,35.949c-1.897,5.028-2.786,10.325-2.673,15.601
								c0.043,1.979,0.226,3.954,0.55,5.911c0.216,1.305,0.494,2.601,0.835,3.885c0.512,1.926,1.163,3.823,1.954,5.676l1.624,3.802
								c0.531,1.244,0.934,2.535,1.203,3.853c0.271,1.318,0.407,2.664,0.407,4.016v6.101c0,2.056-0.333,4.082-0.949,6.022
								c-0.521,1.645-1.242,3.228-2.165,4.707c-1.377,2.208-2.621,4.489-3.727,6.831c-2.766,5.854-4.67,12.085-5.649,18.499
								c-0.196,1.283-0.354,2.573-0.476,3.869l0,0c-0.615,6.586-1.122,13.181-1.537,19.782v0c-0.023,0.366-0.054,0.732-0.076,1.097
								c-0.027,0.453-0.046,0.935-0.06,1.433c-0.006,0.205-0.008,0.421-0.011,0.633c-0.004,0.286-0.008,0.575-0.008,0.873
								c-0.001,0.289,0,0.583,0.003,0.883c0.003,0.216,0.006,0.436,0.011,0.657c0.006,0.361,0.013,0.721,0.023,1.095
								c0,0.001,0,0.003,0,0.004l0,0c0.055,1.856,0.161,3.859,0.311,5.959c0.106,1.486,0.233,3.016,0.375,4.567
								c0.071,0.776,0.147,1.557,0.225,2.34c0.391,3.917,0.861,7.896,1.333,11.573c0.189,1.471,0.378,2.893,0.562,4.244
								c0.059,0.43,0.136,0.853,0.232,1.269c0.289,1.246,0.743,2.423,1.336,3.509c0.198,0.362,0.412,0.714,0.64,1.055
								c0.456,0.682,0.97,1.319,1.535,1.907c0.282,0.294,0.578,0.574,0.884,0.842c0.613,0.535,1.274,1.017,1.974,1.438
								c0.7,0.421,1.44,0.782,2.211,1.076c0.771,0.294,1.574,0.521,2.401,0.674c0.827,0.154,1.679,0.233,2.546,0.233h48.765
								c0.868,0,1.719-0.08,2.546-0.233c0.827-0.153,1.63-0.38,2.4-0.674c0.771-0.294,1.511-0.654,2.21-1.076
								c1.05-0.631,2.011-1.399,2.858-2.279c0.565-0.587,1.079-1.225,1.535-1.907c1.104-1.651,1.859-3.563,2.172-5.635
								c0.01-0.066,0.027-0.13,0.036-0.197c0.828-6.078,1.755-13.605,2.32-20.464c0.24-2.917,0.412-5.706,0.486-8.218l0,0
								c0,0,0-0.001,0-0.002c0.003-0.112,0.009-0.232,0.012-0.343c0.007-0.263,0.008-0.507,0.012-0.763
								c0.004-0.216,0.008-0.432,0.01-0.643c0.002-0.148,0.007-0.308,0.008-0.454c0,0.144,0.005,0.301,0.006,0.448
								c0.003,0.216,0.006,0.436,0.01,0.657c0.006,0.361,0.013,0.721,0.023,1.095c0,0.001,0,0.003,0,0.004l0,0
								c0.055,1.856,0.161,3.859,0.312,5.959c0.107,1.486,0.233,3.016,0.375,4.567c0.071,0.776,0.146,1.557,0.224,2.34
								c0.391,3.917,0.861,7.896,1.333,11.573c0.188,1.471,0.378,2.893,0.562,4.244c0.059,0.43,0.137,0.853,0.232,1.269
								c0.289,1.246,0.743,2.423,1.336,3.509c0.198,0.362,0.412,0.714,0.639,1.055c0.456,0.682,0.97,1.319,1.535,1.907
								c0.282,0.294,0.577,0.574,0.884,0.842c0.614,0.535,1.274,1.017,1.974,1.438c0.7,0.421,1.439,0.782,2.21,1.076
								c0.771,0.294,1.574,0.521,2.4,0.674c0.827,0.154,1.679,0.233,2.546,0.233h48.765c0.867,0,1.719-0.08,2.546-0.233
								c0.827-0.153,1.63-0.38,2.401-0.674c0.771-0.294,1.51-0.654,2.21-1.076c1.05-0.631,2.011-1.399,2.858-2.279
								c0.565-0.587,1.079-1.225,1.534-1.907c1.104-1.651,1.859-3.563,2.172-5.635c0.01-0.066,0.027-0.13,0.036-0.197
								c0.828-6.078,1.755-13.605,2.32-20.464c0.24-2.917,0.412-5.706,0.485-8.218l0,0c0,0,0-0.001,0-0.002
								c0.003-0.112,0.009-0.232,0.012-0.343c0.007-0.263,0.007-0.507,0.012-0.763c0.004-0.216,0.008-0.432,0.01-0.643
								C701.81,528.454,701.811,528.158,701.81,527.867z"/>
							<path style="fill:#0086F5;" d="M865.759,527.867c0-0.298-0.004-0.587-0.008-0.873c-0.003-0.154-0.001-0.32-0.005-0.47
								c-0.001-0.057-0.005-0.107-0.007-0.163c-0.013-0.498-0.031-0.98-0.06-1.433c-0.426-6.967-0.964-13.928-1.613-20.879v-1.841
								l0,0c0-1.776-0.118-3.538-0.347-5.277c-0.306-2.32-0.809-4.602-1.492-6.829c-1.539-5.012-3.992-9.749-7.17-14.025
								c-0.967-1.301-1.765-2.703-2.385-4.175c-1.033-2.453-1.572-5.097-1.572-7.779v-6.101c0-2.705,0.547-5.381,1.61-7.869
								l1.625-3.803c0.792-1.853,1.443-3.75,1.954-5.675c0.852-3.21,1.314-6.498,1.384-9.796c0.015-0.659,0.013-1.319-0.004-1.978
								c-0.12-4.617-1.008-9.222-2.668-13.621l-13.564-35.951c-0.117-0.311-0.324-0.568-0.584-0.749
								c-0.26-0.18-0.575-0.283-0.906-0.283v-2.992h0.922c0.232,0,0.452-0.047,0.652-0.131c0.1-0.042,0.195-0.094,0.284-0.155
								c0.179-0.12,0.332-0.274,0.453-0.452c0.121-0.179,0.208-0.381,0.252-0.599c0.022-0.109,0.034-0.222,0.034-0.338l0,0v-10.889
								v0c0-0.115-0.012-0.229-0.034-0.337c-0.045-0.218-0.132-0.421-0.252-0.599s-0.274-0.332-0.453-0.453
								c-0.089-0.06-0.184-0.112-0.284-0.154c-0.201-0.085-0.421-0.132-0.652-0.132h-3.829h-28.359c-0.925,0-1.675,0.75-1.675,1.675
								v10.889c0,0.925,0.75,1.675,1.675,1.675h0.923v2.992l0,0c-0.663,0-1.257,0.411-1.491,1.031l-13.563,35.949
								c-2.134,5.657-2.992,11.654-2.583,17.578c0.091,1.316,0.244,2.629,0.461,3.934c0.216,1.305,0.494,2.601,0.835,3.885
								c0.511,1.926,1.163,3.823,1.954,5.676l1.624,3.802c0.319,0.749,0.577,1.52,0.803,2.299c0.523,1.808,0.807,3.68,0.807,5.57
								v6.101c0,2.056-0.333,4.082-0.949,6.022c-0.521,1.645-1.243,3.228-2.165,4.707c-1.377,2.208-2.622,4.489-3.728,6.831
								c-2.766,5.854-4.67,12.085-5.649,18.499c-0.196,1.283-0.354,2.573-0.476,3.869l0,0c-0.615,6.586-1.123,13.181-1.537,19.782v0
								c-0.023,0.366-0.053,0.732-0.076,1.097c-0.028,0.453-0.046,0.935-0.06,1.433c-0.006,0.205-0.008,0.421-0.012,0.633
								c-0.004,0.286-0.008,0.575-0.008,0.873c0,0.123-0.004,0.237-0.003,0.363c0-0.126-0.003-0.24-0.004-0.363
								c0-0.298-0.004-0.587-0.008-0.873c-0.003-0.154-0.001-0.32-0.005-0.47c-0.002-0.057-0.005-0.107-0.007-0.163
								c-0.014-0.498-0.032-0.98-0.06-1.433c-0.426-6.967-0.964-13.928-1.613-20.879v-1.841l0,0c0-1.776-0.118-3.538-0.347-5.277
								c-0.305-2.32-0.808-4.602-1.492-6.829c-1.539-5.012-3.992-9.749-7.17-14.025c-0.966-1.301-1.764-2.703-2.384-4.175
								c-1.033-2.453-1.572-5.097-1.572-7.779v-6.101c0-2.705,0.548-5.381,1.61-7.869l1.624-3.803
								c0.792-1.853,1.443-3.75,1.954-5.675c0.853-3.21,1.314-6.498,1.385-9.796c0.015-0.659,0.013-1.319-0.004-1.978
								c-0.121-4.617-1.008-9.222-2.667-13.621l-13.563-35.951c-0.117-0.311-0.324-0.568-0.585-0.749
								c-0.261-0.18-0.575-0.283-0.906-0.283v-2.992h0.923c0.232,0,0.451-0.047,0.652-0.131c0.1-0.042,0.196-0.094,0.285-0.155
								c0.178-0.12,0.332-0.274,0.452-0.452c0.121-0.179,0.208-0.381,0.252-0.599c0.022-0.109,0.034-0.222,0.034-0.338l0,0v-10.889
								v0c0-0.115-0.012-0.229-0.034-0.337c-0.044-0.218-0.132-0.421-0.252-0.599c-0.12-0.178-0.274-0.332-0.452-0.453
								c-0.089-0.06-0.185-0.112-0.285-0.154c-0.201-0.085-0.42-0.132-0.652-0.132h-3.829h-28.359c-0.926,0-1.676,0.75-1.676,1.675
								v10.889c0,0.925,0.75,1.675,1.676,1.675h0.922v2.992l0,0c-0.663,0-1.257,0.411-1.491,1.031l-13.563,35.949
								c-1.896,5.028-2.785,10.325-2.672,15.601c0.042,1.979,0.226,3.954,0.549,5.911c0.216,1.305,0.495,2.601,0.835,3.885
								c0.511,1.926,1.163,3.823,1.955,5.676l1.623,3.802c0.32,0.749,0.577,1.52,0.803,2.299c0.524,1.808,0.807,3.68,0.807,5.57
								v6.101c0,2.056-0.333,4.082-0.948,6.022c-0.522,1.645-1.243,3.228-2.165,4.707c-1.378,2.208-2.622,4.489-3.727,6.831
								c-2.766,5.854-4.671,12.085-5.649,18.499c-0.195,1.283-0.354,2.573-0.476,3.869l0,0c-0.615,6.586-1.122,13.181-1.537,19.782
								v0c-0.023,0.366-0.053,0.732-0.076,1.097c-0.028,0.453-0.046,0.935-0.06,1.433c-0.006,0.205-0.008,0.421-0.011,0.633
								c-0.005,0.286-0.008,0.575-0.009,0.873c-0.001,0.289,0.001,0.583,0.004,0.883c0.002,0.216,0.006,0.436,0.01,0.657
								c0.006,0.361,0.013,0.721,0.023,1.095c0,0.001,0,0.003,0,0.004h0c0.054,1.856,0.161,3.859,0.311,5.959
								c0.107,1.486,0.233,3.016,0.375,4.567c0.071,0.776,0.146,1.557,0.224,2.34c0.391,3.917,0.861,7.896,1.333,11.573
								c0.188,1.471,0.378,2.893,0.562,4.244c0.059,0.43,0.137,0.853,0.233,1.269c0.289,1.246,0.743,2.423,1.336,3.509
								c0.198,0.362,0.412,0.714,0.639,1.055c0.456,0.682,0.97,1.319,1.535,1.907c0.282,0.294,0.577,0.574,0.884,0.842
								c0.614,0.535,1.274,1.017,1.975,1.438c0.699,0.421,1.438,0.782,2.21,1.076c0.771,0.294,1.574,0.521,2.4,0.674
								c0.827,0.154,1.679,0.233,2.546,0.233h48.765c0.868,0,1.719-0.08,2.546-0.233c0.827-0.153,1.63-0.38,2.401-0.674
								c0.771-0.294,1.51-0.654,2.21-1.076c0.7-0.421,1.36-0.902,1.974-1.438c2.148-1.873,3.721-4.404,4.395-7.312
								c0.097-0.415,0.174-0.838,0.232-1.269c0.828-6.078,1.755-13.605,2.32-20.464c0.24-2.917,0.412-5.706,0.485-8.218l0,0
								c0,0,0-0.001,0-0.002c0.003-0.112,0.01-0.232,0.013-0.343c0.007-0.263,0.007-0.507,0.012-0.763
								c0.004-0.216,0.007-0.432,0.01-0.643c0.001-0.148,0.006-0.308,0.007-0.454c0,0.144,0.005,0.301,0.007,0.448
								c0.002,0.216,0.006,0.436,0.01,0.657c0.007,0.361,0.013,0.721,0.024,1.095c0,0.001,0,0.003,0,0.004h0
								c0.054,1.856,0.161,3.859,0.311,5.959c0.107,1.486,0.233,3.016,0.375,4.567c0.071,0.776,0.146,1.557,0.224,2.34
								c0.391,3.917,0.861,7.896,1.333,11.573c0.189,1.471,0.378,2.893,0.562,4.244c0.059,0.43,0.136,0.853,0.233,1.269
								c0.288,1.246,0.742,2.423,1.336,3.509c0.198,0.362,0.411,0.714,0.639,1.055c0.456,0.682,0.97,1.319,1.535,1.907
								c0.282,0.294,0.577,0.574,0.884,0.842c0.614,0.535,1.274,1.017,1.974,1.438c0.7,0.421,1.439,0.782,2.21,1.076
								c0.771,0.294,1.574,0.521,2.401,0.674c0.827,0.154,1.678,0.233,2.546,0.233h48.765c0.868,0,1.719-0.08,2.546-0.233
								c0.827-0.153,1.629-0.38,2.401-0.674c0.771-0.294,1.51-0.654,2.21-1.076c0.7-0.421,1.36-0.902,1.974-1.438
								c2.148-1.873,3.721-4.404,4.394-7.312c0.097-0.415,0.174-0.838,0.233-1.269c0.828-6.078,1.755-13.605,2.32-20.464
								c0.24-2.917,0.412-5.706,0.486-8.218l0,0c0,0,0-0.001,0-0.002c0.003-0.112,0.009-0.232,0.012-0.343
								c0.007-0.263,0.007-0.507,0.012-0.763c0.004-0.216,0.008-0.432,0.01-0.643C865.759,528.454,865.76,528.158,865.759,527.867z"
								/>
							<path style="fill:#0086F5;" d="M1029.706,528.757c0.002-0.158,0.006-0.327,0.007-0.482c0-0.142-0.004-0.27-0.004-0.409
								c0-0.295-0.004-0.581-0.008-0.865c-0.003-0.215-0.005-0.434-0.011-0.641c-0.014-0.497-0.032-0.979-0.06-1.43
								c-0.426-6.967-0.963-13.928-1.613-20.879v-1.841l0,0c0-1.776-0.118-3.538-0.348-5.277c-0.306-2.32-0.809-4.602-1.492-6.829
								c-1.538-5.012-3.991-9.749-7.17-14.025c-1.611-2.168-2.753-4.619-3.384-7.2c-0.379-1.549-0.572-3.145-0.572-4.754v-6.101
								c0-0.779,0.059-1.554,0.148-2.325c0.125-1.063,0.34-2.112,0.632-3.141c0.231-0.815,0.496-1.62,0.83-2.402l1.624-3.803
								c0.264-0.618,0.512-1.24,0.745-1.867c0.465-1.254,0.869-2.525,1.21-3.808c0.511-1.926,0.882-3.88,1.112-5.848
								c0.081-0.684,0.141-1.37,0.187-2.057c0.395-5.896-0.463-11.862-2.587-17.491l-13.563-35.951
								c-0.117-0.311-0.324-0.568-0.584-0.749c-0.261-0.18-0.575-0.283-0.907-0.283v-2.992h0.923c0.231,0,0.452-0.047,0.652-0.131
								c0.101-0.042,0.195-0.094,0.285-0.155c0.178-0.12,0.332-0.274,0.453-0.452c0.12-0.179,0.207-0.381,0.252-0.599
								c0.022-0.109,0.034-0.222,0.034-0.338l0,0v-10.889v0c0-0.115-0.012-0.229-0.034-0.337c-0.045-0.218-0.132-0.421-0.252-0.599
								c-0.121-0.178-0.274-0.332-0.453-0.453c-0.089-0.06-0.184-0.112-0.285-0.154c-0.2-0.085-0.421-0.132-0.652-0.132h-3.829
								h-28.36c-0.925,0-1.675,0.75-1.675,1.675v10.889c0,0.925,0.75,1.675,1.675,1.675h0.923v2.992l0,0
								c-0.663,0-1.257,0.411-1.491,1.031l-10.084,26.73l0,0l-3.479,9.219c-0.237,0.628-0.459,1.261-0.664,1.898
								c-1.645,5.09-2.283,10.414-1.919,15.68c0.051,0.74,0.127,1.477,0.217,2.214c0.474,3.852,1.482,7.65,3.032,11.281l1.624,3.802
								c0.32,0.749,0.577,1.52,0.803,2.299c0.524,1.808,0.808,3.68,0.808,5.57v6.101c0,2.056-0.333,4.082-0.949,6.022
								c-0.521,1.645-1.242,3.228-2.165,4.707c-1.377,2.208-2.621,4.489-3.727,6.831c-2.766,5.854-4.67,12.085-5.649,18.499
								c-0.196,1.283-0.354,2.573-0.476,3.869l0,0c-0.649,6.951-1.188,13.912-1.613,20.878c-0.027,0.453-0.046,0.935-0.06,1.433
								c-0.006,0.205-0.008,0.421-0.011,0.633c-0.004,0.286-0.008,0.575-0.008,0.873c0,0.123-0.004,0.237-0.004,0.362
								c0-0.126-0.003-0.24-0.003-0.364c-0.001-0.295-0.004-0.581-0.009-0.865c-0.003-0.215-0.005-0.434-0.011-0.641
								c-0.013-0.497-0.032-0.979-0.06-1.43c-0.426-6.967-0.964-13.928-1.613-20.879v-1.841l0,0c0-1.776-0.118-3.538-0.347-5.277
								c-0.306-2.32-0.809-4.602-1.492-6.829c-1.538-5.012-3.992-9.749-7.17-14.025c-1.611-2.168-2.754-4.619-3.384-7.2
								c-0.378-1.549-0.572-3.145-0.572-4.754v-6.101c0-0.779,0.059-1.554,0.149-2.325c0.124-1.063,0.34-2.112,0.632-3.141
								c0.231-0.815,0.495-1.62,0.83-2.402l1.624-3.803c0.264-0.618,0.512-1.24,0.745-1.867c0.466-1.254,0.869-2.525,1.209-3.808
								c0.511-1.926,0.882-3.88,1.112-5.848c0.08-0.684,0.142-1.37,0.188-2.057c0.394-5.896-0.463-11.862-2.587-17.491
								l-13.563-35.951c-0.117-0.311-0.324-0.568-0.585-0.749c-0.26-0.18-0.575-0.283-0.907-0.283v-2.992h0.923
								c0.232,0,0.452-0.047,0.652-0.131c0.1-0.042,0.195-0.094,0.284-0.155c0.179-0.12,0.332-0.274,0.453-0.452
								c0.121-0.179,0.207-0.381,0.252-0.599c0.022-0.109,0.034-0.222,0.034-0.338l0,0v-10.889v0c0-0.115-0.012-0.229-0.034-0.337
								c-0.045-0.218-0.132-0.421-0.252-0.599s-0.274-0.332-0.453-0.453c-0.089-0.06-0.184-0.112-0.284-0.154
								c-0.201-0.085-0.421-0.132-0.652-0.132h-3.829h-28.359c-0.925,0-1.675,0.75-1.675,1.675v10.889
								c0,0.925,0.75,1.675,1.675,1.675h0.923v2.992l0,0c-0.663,0-1.257,0.411-1.491,1.031l-10.085,26.73l0,0l-3.479,9.219
								c-0.237,0.628-0.458,1.261-0.664,1.898c-1.645,5.09-2.283,10.414-1.919,15.68c0.051,0.74,0.127,1.477,0.217,2.214
								c0.474,3.852,1.482,7.65,3.032,11.281l1.624,3.802c0.32,0.749,0.577,1.52,0.803,2.299c0.523,1.808,0.807,3.68,0.807,5.57
								v6.101c0,2.056-0.333,4.082-0.949,6.022c-0.521,1.645-1.242,3.228-2.165,4.707c-1.377,2.208-2.621,4.489-3.727,6.831
								c-2.766,5.854-4.67,12.085-5.649,18.499c-0.196,1.283-0.354,2.573-0.475,3.869l0,0c-0.649,6.951-1.188,13.912-1.613,20.878
								c-0.028,0.453-0.046,0.935-0.06,1.433c-0.006,0.205-0.008,0.421-0.012,0.633c-0.004,0.286-0.008,0.575-0.008,0.873
								c-0.001,0.289,0,0.583,0.003,0.883c0.002,0.216,0.006,0.436,0.01,0.657c0.006,0.361,0.013,0.721,0.024,1.095
								c0,0.001,0,0.003,0,0.004l0,0c0.054,1.856,0.161,3.859,0.311,5.959c0.107,1.486,0.233,3.016,0.375,4.567
								c0.071,0.776,0.146,1.557,0.224,2.34c0.391,3.917,0.861,7.896,1.333,11.573c0.189,1.471,0.378,2.893,0.562,4.244
								c0.059,0.43,0.136,0.853,0.233,1.269c0.385,1.662,1.063,3.2,1.975,4.564c0.456,0.682,0.97,1.319,1.535,1.907
								c0.508,0.527,1.062,1.008,1.646,1.45c0.175,0.132,0.355,0.257,0.537,0.381c1.007,0.689,2.106,1.247,3.276,1.653
								c0.561,0.195,1.136,0.357,1.727,0.479c0.917,0.19,1.862,0.299,2.831,0.299l0,0h48.765c0.868,0,1.72-0.08,2.546-0.233
								c0.827-0.153,1.63-0.38,2.401-0.674c0.771-0.294,1.51-0.654,2.21-1.076c0.7-0.421,1.36-0.902,1.975-1.438
								c2.147-1.873,3.721-4.404,4.394-7.312c0.097-0.415,0.175-0.838,0.233-1.269c0.828-6.078,1.755-13.605,2.319-20.464
								c0.126-1.524,0.233-3.015,0.318-4.45c0.102-1.728,0.166-3.358,0.192-4.882c0.004-0.213,0.008-0.426,0.01-0.635
								c0.002-0.149,0.007-0.308,0.007-0.455c0.001,0.145,0.006,0.301,0.007,0.448c0.003,0.216,0.006,0.436,0.01,0.657
								c0.006,0.361,0.013,0.721,0.024,1.095c0,0.001,0,0.003,0,0.004l0,0c0.055,1.856,0.161,3.859,0.312,5.959
								c0.107,1.486,0.233,3.016,0.375,4.567c0.071,0.776,0.146,1.557,0.225,2.34c0.39,3.917,0.861,7.896,1.333,11.573
								c0.188,1.471,0.377,2.893,0.562,4.244c0.059,0.43,0.136,0.853,0.232,1.269c0.385,1.662,1.064,3.2,1.976,4.564
								c0.456,0.682,0.97,1.319,1.534,1.907c0.508,0.527,1.062,1.008,1.646,1.45c0.175,0.132,0.354,0.257,0.536,0.381
								c1.007,0.689,2.106,1.247,3.276,1.653c0.561,0.195,1.136,0.357,1.727,0.479c0.917,0.19,1.861,0.299,2.83,0.299l0,0h48.765
								c0.868,0,1.719-0.08,2.546-0.233c0.827-0.153,1.63-0.38,2.4-0.674c0.771-0.294,1.511-0.654,2.211-1.076
								c0.7-0.421,1.36-0.902,1.974-1.438c2.147-1.873,3.721-4.404,4.394-7.312c0.096-0.415,0.174-0.838,0.232-1.269
								c0.828-6.078,1.755-13.605,2.32-20.464c0.125-1.524,0.233-3.015,0.318-4.45c0.102-1.728,0.165-3.358,0.192-4.882
								C1029.699,529.179,1029.703,528.966,1029.706,528.757z"/>
						</g>
						<g>
							<path style="fill:#0086F5;" d="M1597.224,516.364c0.005-0.286,0.011-0.571,0.013-0.85c0.002-0.206,0.01-0.426,0.01-0.628
								c0.001-0.186-0.004-0.354-0.005-0.537c-0.001-0.388-0.005-0.763-0.011-1.136c-0.005-0.281-0.008-0.567-0.016-0.839
								c-0.018-0.652-0.041-1.284-0.078-1.877c-0.559-9.141-1.264-18.273-2.116-27.393v-2.415l0,0c0-4.66-0.62-9.244-1.785-13.679
								c-0.776-2.957-1.797-5.848-3.037-8.651c-0.469-1.06-0.979-2.104-1.511-3.138c-0.746-1.452-1.55-2.876-2.412-4.271
								c-0.346-0.561-0.702-1.116-1.067-1.667c-0.387-0.585-0.784-1.164-1.19-1.737c-0.271-0.381-0.537-0.765-0.816-1.141
								c-0.227-0.304-0.427-0.623-0.639-0.936c-0.791-1.166-1.482-2.386-2.072-3.65c-0.434-0.931-0.832-1.877-1.153-2.85
								c-0.875-2.648-1.327-5.432-1.327-8.247v-8.004c0-0.987,0.062-1.971,0.172-2.948c0.173-1.532,0.481-3.045,0.92-4.523
								c0.067-0.228,0.138-0.455,0.211-0.681c0.24-0.734,0.506-1.46,0.811-2.172l2.131-4.989c2.076-4.862,3.418-9.955,4.022-15.118
								c0.201-1.721,0.32-3.449,0.357-5.18c0.148-6.921-1.018-13.87-3.506-20.466l-17.795-47.167
								c-0.308-0.814-1.086-1.352-1.956-1.352v-3.925h1.21h0.001c0.455,0,0.877-0.139,1.229-0.376
								c0.117-0.079,0.226-0.169,0.325-0.269c0.198-0.199,0.359-0.436,0.471-0.698c0.111-0.263,0.173-0.552,0.173-0.855v0v-14.286
								l0,0c0-0.152-0.016-0.3-0.045-0.443c-0.029-0.143-0.072-0.281-0.128-0.413c-0.333-0.789-1.114-1.342-2.024-1.342h-0.001
								h-5.023h-37.207c-1.214,0-2.198,0.984-2.198,2.198v14.287c0,1.213,0.984,2.198,2.198,2.198h1.211v3.925h-0.001
								c-0.869,0-1.648,0.539-1.956,1.352l-13.23,35.069l0,0l-4.563,12.096c-2.8,7.421-3.926,15.289-3.389,23.061
								c0.119,1.727,0.32,3.45,0.603,5.161c0.709,4.279,1.929,8.492,3.66,12.544l2.13,4.987c1.394,3.264,2.112,6.776,2.112,10.324
								v8.004c0,3.738-0.814,7.407-2.334,10.792c-0.506,1.129-1.092,2.225-1.751,3.283c-2.054,3.292-3.872,6.711-5.466,10.225
								c-2.262,4.992-4.061,10.18-5.354,15.504c-0.401,1.649-0.755,3.312-1.06,4.984c-0.306,1.673-0.563,3.357-0.771,5.049
								c-0.104,0.846-0.196,1.694-0.275,2.544v0c-0.807,8.641-1.473,17.293-2.017,25.953v-0.001c-0.03,0.48-0.07,0.96-0.1,1.44
								c-0.036,0.594-0.061,1.227-0.078,1.88c-0.008,0.269-0.011,0.552-0.016,0.83c-0.005,0.376-0.01,0.755-0.011,1.147
								c0,0.163-0.005,0.313-0.004,0.478c0-0.166-0.005-0.317-0.005-0.481c-0.001-0.389-0.006-0.766-0.011-1.139
								c-0.005-0.279-0.008-0.564-0.015-0.834c-0.019-0.653-0.043-1.286-0.079-1.88c-0.559-9.141-1.265-18.273-2.116-27.393v-2.415
								l0,0c0-5.437-0.844-10.77-2.413-15.883c-0.225-0.731-0.464-1.457-0.717-2.178c-0.884-2.515-1.954-4.968-3.177-7.353
								c-1.58-3.086-3.422-6.056-5.514-8.869c-1.69-2.275-2.988-4.788-3.863-7.436c-0.875-2.648-1.327-5.432-1.327-8.247v-8.004
								c0-0.987,0.062-1.971,0.172-2.948c0.173-1.532,0.482-3.045,0.919-4.523c0.162-0.544,0.334-1.085,0.531-1.619
								c0.152-0.415,0.316-0.827,0.49-1.235l2.131-4.989c0.692-1.621,1.303-3.267,1.832-4.933
								c1.587-4.999,2.438-10.173,2.549-15.364c0-0.002,0-0.004,0-0.006c0.036-1.685-0.009-3.372-0.129-5.055
								c-0.373-5.228-1.495-10.418-3.377-15.406l-4.564-12.098l0,0l-13.23-35.069c-0.154-0.407-0.426-0.745-0.768-0.981
								c-0.342-0.237-0.754-0.371-1.188-0.371v-3.925h1.21c0.91,0,1.691-0.554,2.025-1.342c0.111-0.263,0.173-0.552,0.173-0.855v0
								v-14.286l0,0c0-0.152-0.016-0.3-0.045-0.443c-0.088-0.429-0.301-0.813-0.599-1.111c-0.199-0.199-0.436-0.36-0.699-0.471
								c-0.263-0.111-0.552-0.173-0.856-0.173h-5.023h-37.207c-1.214,0-2.197,0.984-2.197,2.198v14.287
								c0,1.213,0.983,2.198,2.197,2.198h1.211v3.925l0,0c-0.871,0-1.65,0.539-1.957,1.352l-17.794,47.165
								c-1.244,3.298-2.158,6.685-2.742,10.112c-0.146,0.857-0.271,1.716-0.376,2.577c-0.314,2.583-0.443,5.183-0.388,7.779
								c0.037,1.73,0.156,3.459,0.357,5.18c0.185,1.584,0.448,3.159,0.772,4.725c0.732,3.539,1.811,7.022,3.25,10.394l2.131,4.987
								c1.045,2.448,1.711,5.035,1.978,7.673c0.089,0.879,0.134,1.765,0.134,2.651v8.004c0,0.69-0.034,1.378-0.089,2.062
								c-0.085,1.057-0.237,2.103-0.448,3.137c-0.306,1.494-0.743,2.956-1.3,4.376c-0.609,1.558-1.354,3.068-2.248,4.5
								c-1.658,2.659-3.162,5.401-4.521,8.208c-4.194,8.664-6.951,17.969-8.129,27.554c-0.104,0.846-0.195,1.694-0.275,2.544v0
								c-0.851,9.12-1.558,18.251-2.116,27.392c-0.036,0.593-0.061,1.225-0.078,1.877c-0.008,0.272-0.011,0.559-0.015,0.841
								c-0.006,0.372-0.011,0.747-0.012,1.135c0,0.183-0.006,0.351-0.005,0.537c0.001,0.202,0.008,0.422,0.01,0.628
								c0.003,0.28,0.008,0.566,0.013,0.853c0.009,0.476,0.017,0.952,0.031,1.446c0,0,0,0.002,0,0.002l0,0
								c0.299,10.187,1.859,23.917,3.314,34.906c0.123,0.93,0.246,1.839,0.367,2.725c0.076,0.564,0.179,1.119,0.305,1.664
								c0.314,1.357,0.793,2.642,1.387,3.857c0.216,0.441,0.447,0.872,0.696,1.292c0.37,0.622,0.771,1.221,1.209,1.791
								c0.413,0.539,0.845,1.061,1.313,1.548c0.018,0.018,0.037,0.034,0.055,0.052c0.52,0.536,1.08,1.028,1.661,1.496
								c0.917,0.739,1.903,1.389,2.95,1.94c0.643,0.338,1.3,0.653,1.983,0.913c2.023,0.771,4.213,1.191,6.49,1.191h63.979
								c2.277,0,4.468-0.42,6.49-1.191c1.012-0.385,1.981-0.859,2.9-1.411c0.459-0.276,0.906-0.572,1.338-0.887
								c3.889-2.833,6.631-7.18,7.323-12.257c0.226-1.657,0.457-3.401,0.688-5.197c0.17-1.318,0.339-2.668,0.507-4.039
								c0.187-1.523,0.37-3.069,0.55-4.63c0.053-0.462,0.104-0.924,0.156-1.388c0.191-1.711,0.375-3.428,0.547-5.141
								c0.023-0.228,0.046-0.454,0.068-0.681c0.183-1.848,0.352-3.683,0.502-5.485c0.179-2.151,0.332-4.254,0.449-6.271
								c0.105-1.797,0.182-3.526,0.226-5.16c0.01-0.375,0.013-0.727,0.019-1.09c0.005-0.286,0.01-0.571,0.013-0.85
								c0.002-0.194,0.009-0.402,0.01-0.594c0.001,0.191,0.007,0.399,0.009,0.593c0.003,0.278,0.008,0.562,0.013,0.846
								c0.064,3.659,0.306,7.833,0.669,12.236c0.164,2,0.353,4.043,0.558,6.099c0.41,4.112,0.888,8.274,1.379,12.245
								c0.368,2.978,0.745,5.847,1.106,8.505c0.077,0.564,0.18,1.119,0.306,1.664c0.456,1.965,1.238,3.789,2.261,5.442
								c0.188,0.302,0.38,0.599,0.584,0.889c1.771,2.52,4.151,4.566,6.926,5.917c2.418,1.178,5.128,1.834,7.975,1.834l0,0h63.979
								c7.971,0,14.871-5.145,17.296-12.477c0.347-1.048,0.6-2.14,0.755-3.268c1.334-9.792,2.862-22.449,3.468-32.831
								c0.104-1.797,0.183-3.526,0.226-5.16C1597.215,517.08,1597.217,516.727,1597.224,516.364z"/>
							<path style="fill:#0086F5;" d="M1812.335,515.514c0.003-0.206,0.009-0.426,0.01-0.628c0.001-0.186-0.005-0.354-0.005-0.537
								c-0.001-0.388-0.006-0.763-0.011-1.136c-0.005-0.281-0.008-0.567-0.016-0.839c-0.018-0.652-0.042-1.284-0.078-1.877
								c-0.559-9.141-1.265-18.273-2.116-27.393v-2.415l0,0c0-4.66-0.62-9.244-1.785-13.679c-0.777-2.957-1.797-5.848-3.037-8.651
								c-1.86-4.205-4.218-8.213-6.998-11.954c-1.69-2.275-2.988-4.788-3.863-7.436c-0.875-2.648-1.327-5.432-1.327-8.247v-8.004
								c0-0.987,0.062-1.971,0.172-2.948c0.173-1.532,0.481-3.045,0.919-4.523c0.162-0.544,0.334-1.085,0.531-1.619
								c0.152-0.415,0.316-0.827,0.49-1.235l2.131-4.989c2.077-4.862,3.419-9.955,4.023-15.118c0.201-1.721,0.32-3.449,0.357-5.18
								c0.148-6.921-1.018-13.87-3.506-20.466l-4.564-12.098l0,0l-13.23-35.069c-0.153-0.407-0.426-0.745-0.768-0.981
								c-0.342-0.237-0.754-0.371-1.189-0.371v-3.925h1.211c0.91,0,1.691-0.554,2.026-1.342c0.111-0.263,0.173-0.552,0.173-0.855v0
								v-14.286l0,0c0-0.152-0.016-0.3-0.045-0.443c-0.088-0.429-0.301-0.813-0.599-1.111c-0.199-0.199-0.436-0.36-0.699-0.471
								c-0.263-0.111-0.552-0.173-0.855-0.173h-5.023h-37.207c-1.214,0-2.198,0.984-2.198,2.198v14.287
								c0,1.213,0.984,2.198,2.198,2.198h1.211v3.925h-0.001c-0.87,0-1.649,0.539-1.956,1.352l-17.794,47.165
								c-1.245,3.298-2.158,6.685-2.742,10.112c-0.146,0.857-0.271,1.716-0.376,2.577c-0.314,2.583-0.443,5.183-0.389,7.779
								c0.037,1.73,0.157,3.459,0.358,5.18c0.185,1.584,0.448,3.159,0.772,4.725c0.732,3.539,1.811,7.022,3.25,10.394l2.131,4.987
								c1.394,3.264,2.112,6.776,2.112,10.324v8.004c0,3.738-0.814,7.407-2.334,10.792c-0.507,1.129-1.092,2.225-1.751,3.283
								c-1.658,2.659-3.162,5.401-4.521,8.208c-2.714,5.605-4.83,11.476-6.299,17.521c-0.401,1.649-0.755,3.312-1.061,4.984
								c-0.305,1.673-0.563,3.357-0.77,5.049c-0.104,0.846-0.196,1.694-0.275,2.544v0c-0.808,8.641-1.473,17.293-2.017,25.953
								v-0.001c-0.03,0.48-0.07,0.96-0.1,1.44c-0.036,0.594-0.061,1.227-0.078,1.88c-0.008,0.269-0.011,0.552-0.015,0.83
								c-0.006,0.376-0.011,0.756-0.012,1.148c0,0.163-0.005,0.312-0.004,0.477c0-0.166-0.005-0.317-0.005-0.481
								c-0.001-0.389-0.006-0.766-0.011-1.139c-0.005-0.279-0.008-0.564-0.016-0.834c-0.018-0.653-0.042-1.286-0.078-1.88
								c-0.559-9.141-1.265-18.273-2.116-27.393v-2.415l0,0c0-4.66-0.62-9.244-1.785-13.679c-0.777-2.957-1.797-5.848-3.037-8.651
								c-1.86-4.205-4.218-8.213-6.998-11.954c-1.69-2.275-2.988-4.788-3.863-7.436c-0.875-2.648-1.327-5.432-1.327-8.247v-8.004
								c0-3.105,0.55-6.182,1.621-9.089c0.153-0.415,0.317-0.827,0.491-1.235l2.131-4.989c2.077-4.862,3.419-9.955,4.022-15.118
								c0.201-1.721,0.32-3.449,0.358-5.18c0.148-6.921-1.018-13.87-3.506-20.466l-17.795-47.167
								c-0.308-0.814-1.087-1.352-1.956-1.352v-3.925h1.21l0,0c0.455,0,0.878-0.139,1.229-0.376
								c0.117-0.079,0.226-0.169,0.325-0.269c0.199-0.199,0.36-0.436,0.472-0.698c0.11-0.263,0.173-0.552,0.173-0.855v0v-14.286l0,0
								c0-0.152-0.016-0.3-0.045-0.443c-0.029-0.143-0.072-0.281-0.128-0.413c-0.334-0.789-1.115-1.342-2.025-1.342l0,0h-5.023
								h-37.207c-1.214,0-2.198,0.984-2.198,2.198v14.287c0,1.213,0.984,2.198,2.198,2.198h1.21v3.925l0,0
								c-0.87,0-1.648,0.539-1.956,1.352l-17.794,47.165c-0.934,2.474-1.681,4.997-2.242,7.55c-0.562,2.553-0.938,5.135-1.129,7.728
								c-0.127,1.728-0.172,3.46-0.135,5.19c0.148,6.921,1.611,13.815,4.38,20.299l2.13,4.987c0.524,1.224,0.951,2.482,1.281,3.765
								c0.551,2.138,0.832,4.341,0.832,6.559v8.004c0,3.738-0.814,7.407-2.334,10.792c-0.507,1.129-1.092,2.225-1.751,3.283
								c-1.355,2.173-2.612,4.399-3.769,6.673c-3.083,6.063-5.448,12.458-7.053,19.057c-0.4,1.649-0.754,3.312-1.06,4.984
								c-0.306,1.673-0.561,3.357-0.77,5.049c-0.104,0.846-0.196,1.694-0.275,2.544v0c-0.808,8.641-1.473,17.293-2.017,25.953
								v-0.001c-0.03,0.48-0.07,0.96-0.1,1.44c-0.037,0.594-0.061,1.227-0.078,1.88c-0.008,0.269-0.011,0.552-0.016,0.83
								c-0.006,0.376-0.01,0.755-0.011,1.147c-0.001,0.182-0.006,0.348-0.005,0.533c0,0.202,0.008,0.422,0.01,0.628
								c0.002,0.278,0.008,0.562,0.013,0.846c0.063,3.659,0.306,7.833,0.669,12.236c0.164,2,0.353,4.043,0.557,6.099
								c0.205,2.056,0.428,4.125,0.659,6.175c0.58,5.128,1.224,10.145,1.827,14.575c0.077,0.564,0.179,1.119,0.306,1.664
								c0.314,1.357,0.793,2.642,1.387,3.857c0.216,0.441,0.447,0.872,0.696,1.292c0.369,0.622,0.771,1.221,1.209,1.791
								c0.412,0.539,0.844,1.061,1.313,1.548c0.018,0.018,0.038,0.034,0.056,0.052c0.651,0.671,1.358,1.286,2.105,1.85
								c0.788,0.596,1.628,1.124,2.508,1.587c2.543,1.338,5.426,2.104,8.473,2.104l0,0h63.979c7.971,0,14.871-5.145,17.295-12.477
								c0.347-1.048,0.602-2.14,0.756-3.268c1.334-9.792,2.862-22.449,3.468-32.831c0.104-1.797,0.182-3.526,0.226-5.16
								c0.01-0.375,0.012-0.727,0.019-1.09c0.005-0.286,0.01-0.571,0.013-0.85c0.002-0.194,0.008-0.402,0.01-0.594
								c0,0.189,0.007,0.396,0.009,0.588c0.003,0.282,0.008,0.57,0.013,0.858c0.182,10.303,1.819,24.83,3.346,36.353
								c0.123,0.93,0.246,1.839,0.366,2.725c0.077,0.564,0.179,1.119,0.306,1.664c0.455,1.965,1.238,3.789,2.261,5.442
								c0.188,0.302,0.38,0.599,0.583,0.889c1.772,2.52,4.152,4.566,6.926,5.917c2.419,1.178,5.129,1.834,7.976,1.834l0,0h63.979
								c1.708,0,3.366-0.236,4.942-0.679c1.051-0.296,2.065-0.684,3.033-1.155c1.451-0.706,2.797-1.601,4.004-2.654
								c3.221-2.808,5.456-6.745,6.071-11.257c0.226-1.657,0.457-3.401,0.688-5.197c0.17-1.318,0.339-2.668,0.507-4.039
								c0.187-1.523,0.37-3.069,0.55-4.63c0.166-1.452,0.326-2.911,0.481-4.374c0.179-1.688,0.347-3.374,0.503-5.044
								c0.475-5.103,0.825-10.039,0.952-14.348l0,0l0,0c0.015-0.495,0.022-0.972,0.031-1.45
								C1812.327,516.078,1812.332,515.793,1812.335,515.514z"/>
							<path style="fill:#0086F5;" d="M1919.854,517.454c0.011-0.375,0.013-0.727,0.019-1.09c0.006-0.286,0.011-0.571,0.014-0.85
								c0.002-0.206,0.009-0.426,0.01-0.628c0.001-0.186-0.005-0.354-0.005-0.537c-0.001-0.388-0.006-0.763-0.012-1.136
								c-0.004-0.281-0.007-0.567-0.015-0.839c-0.018-0.652-0.042-1.284-0.078-1.877c-0.56-9.141-1.265-18.273-2.116-27.393v-2.415
								l0,0c0-4.66-0.62-9.244-1.786-13.679c-0.776-2.957-1.796-5.848-3.037-8.651c-0.469-1.06-0.979-2.104-1.511-3.138
								c-0.745-1.452-1.549-2.876-2.411-4.271c-0.347-0.561-0.703-1.116-1.067-1.667c-0.388-0.585-0.784-1.164-1.191-1.737
								c-0.271-0.381-0.537-0.765-0.816-1.141c-0.227-0.304-0.427-0.623-0.639-0.936c-0.791-1.166-1.483-2.386-2.072-3.65
								c-0.434-0.931-0.831-1.877-1.152-2.85c-0.875-2.648-1.327-5.432-1.327-8.247v-8.004c0-0.987,0.062-1.971,0.171-2.948
								c0.174-1.532,0.481-3.045,0.92-4.523c0.067-0.228,0.138-0.455,0.211-0.681c0.24-0.734,0.506-1.46,0.81-2.172l2.131-4.989
								c2.076-4.862,3.419-9.955,4.022-15.118c0.201-1.721,0.32-3.449,0.358-5.18c0.148-6.921-1.018-13.87-3.507-20.466
								l-17.794-47.167c-0.23-0.61-0.727-1.066-1.327-1.256c-0.2-0.063-0.412-0.097-0.63-0.097v-3.925h1.211
								c0.151,0,0.3-0.016,0.442-0.045c0.286-0.059,0.553-0.172,0.786-0.331c0.117-0.079,0.226-0.169,0.325-0.269
								c0.199-0.199,0.36-0.436,0.472-0.698c0.11-0.263,0.172-0.552,0.172-0.855v0v-14.286l0,0c0-0.152-0.016-0.3-0.044-0.443
								c-0.029-0.143-0.073-0.281-0.128-0.413c-0.278-0.657-0.867-1.151-1.583-1.297c-0.142-0.029-0.291-0.045-0.442-0.045h-5.023
								h-37.207c-1.215,0-2.198,0.984-2.198,2.198v14.287c0,1.213,0.983,2.198,2.198,2.198h1.21v3.925l0,0
								c-0.87,0-1.649,0.539-1.956,1.352l-17.795,47.165c-1.244,3.298-2.157,6.685-2.741,10.112
								c-0.147,0.857-0.272,1.716-0.377,2.577c-0.313,2.583-0.443,5.183-0.388,7.779c0.056,2.595,0.297,5.187,0.722,7.754
								c0.708,4.279,1.929,8.492,3.659,12.544l2.13,4.987c1.395,3.264,2.112,6.776,2.112,10.324v8.004
								c0,3.738-0.814,7.407-2.333,10.792c-0.507,1.129-1.092,2.225-1.751,3.283c-2.054,3.292-3.873,6.711-5.466,10.225
								c-2.263,4.992-4.062,10.18-5.355,15.504c-0.401,1.649-0.755,3.312-1.06,4.984c-0.306,1.673-0.563,3.357-0.771,5.049
								c-0.104,0.846-0.195,1.694-0.274,2.544v0c-0.808,8.641-1.473,17.293-2.018,25.953v-0.001c-0.029,0.48-0.07,0.96-0.1,1.44
								c-0.036,0.594-0.06,1.227-0.078,1.88c-0.007,0.269-0.01,0.552-0.015,0.83c-0.006,0.376-0.011,0.755-0.011,1.147
								c-0.001,0.182-0.006,0.348-0.006,0.533c0.001,0.202,0.008,0.422,0.01,0.628c0.003,0.278,0.008,0.562,0.014,0.846
								c0.063,3.659,0.306,7.833,0.668,12.236c0.165,2,0.354,4.043,0.558,6.099c0.41,4.112,0.888,8.274,1.379,12.245
								c0.368,2.978,0.745,5.847,1.107,8.505c0.077,0.564,0.179,1.119,0.306,1.664c0.455,1.965,1.237,3.789,2.261,5.442
								c0.187,0.302,0.379,0.599,0.583,0.889c1.773,2.52,4.152,4.566,6.926,5.917c2.419,1.178,5.129,1.834,7.976,1.834l0,0h63.978
								c7.97,0,14.87-5.145,17.295-12.477c0.347-1.048,0.602-2.14,0.755-3.268c0.985-7.23,2.075-16.02,2.822-24.306
								C1919.423,526.261,1919.744,521.558,1919.854,517.454z"/>
						</g>
						<polygon style="fill:#0086F5;" points="380.884,1249.124 380.884,1240.447 330.997,1240.447 330.997,1249.124 
							321.393,1249.124 321.393,1558.096 498.925,1558.096 498.925,1249.124 						"/>
						<polygon style="fill:#0086F5;" points="580.525,1249.124 580.525,1240.447 530.638,1240.447 530.638,1249.124 
							521.033,1249.124 521.033,1558.096 698.566,1558.096 698.566,1249.124 						"/>
						<polygon style="fill:#0086F5;" points="780.941,1249.124 780.941,1240.447 731.054,1240.447 731.054,1249.124 
							721.45,1249.124 721.45,1558.096 898.982,1558.096 898.982,1249.124 						"/>
						<polygon style="fill:#0086F5;" points="981.357,1249.124 981.357,1240.447 931.471,1240.447 931.471,1249.124 
							921.866,1249.124 921.866,1558.096 1099.399,1558.096 1099.399,1249.124 						"/>
						<polygon style="fill:#0086F5;" points="1181.774,1249.124 1181.774,1240.447 1131.887,1240.447 1131.887,1249.124 
							1122.282,1249.124 1122.282,1558.096 1299.814,1558.096 1299.814,1249.124 						"/>
					</g>
				</g>
			</g>
			
				<linearGradient id="SVGID_00000068645629378238429940000008962967798404792708_" gradientUnits="userSpaceOnUse" x1="235.115" y1="976.3701" x2="2036.9558" y2="976.3701">
				<stop  offset="0" style="stop-color:#1F90F2"/>
				<stop  offset="1" style="stop-color:#A3D6FF"/>
			</linearGradient>
			<path style="opacity:0.54;fill:url(#SVGID_00000068645629378238429940000008962967798404792708_);" d="M1194.553,259.865
				c-561.624,107.743-797.944,239.584-841.83,690.125c-31.998,328.487-389.911,808.375,325.88,768.562
				c883.015-49.112,833.14-190.688,1152.987-532.891C2201.205,790.21,2119.06,82.504,1194.553,259.865z"/>
		</g>
		<g>
			<path style="fill:#1F3050;" d="M575.724,1768.851c0,33.468-27.131,60.596-60.598,60.596c-33.466,0-60.596-27.128-60.596-60.596
				c0-33.466,27.129-60.597,60.596-60.597C548.593,1708.254,575.724,1735.385,575.724,1768.851z"/>
			<path style="fill:#1F3050;" d="M1077.759,1768.851c0,33.468-27.131,60.596-60.599,60.596c-33.465,0-60.596-27.128-60.596-60.596
				c0-33.466,27.13-60.597,60.596-60.597C1050.628,1708.254,1077.759,1735.385,1077.759,1768.851z"/>
			<path style="fill:#FFAB00;" d="M485.397,1767.646l-4.908,0.86c-12.282,2.154-23.984-6.058-26.138-18.34l-11.858-67.66
				l50.889-0.084l10.355,59.086C505.891,1753.793,497.679,1765.494,485.397,1767.646z"/>
			<path style="fill:#FFAB00;" d="M987.432,1767.646l-4.907,0.86c-12.282,2.154-23.985-6.058-26.138-18.34l-11.858-67.66
				l50.888-0.084l10.355,59.086C1007.926,1753.793,999.714,1765.494,987.432,1767.646z"/>
			<g>
				<path style="fill:#FFAB00;" d="M1003.32,1686.377H423.291c-4.271,0-7.733-3.463-7.733-7.736c0-4.271,3.462-7.733,7.733-7.733
					h580.029c42.774,0,64.523-52.131,34.166-82.481c-33.004-33.005-76.799-53.317-123.311-57.194l-157.051-13.086
					c-4.255-0.355-7.421-4.092-7.066-8.348c0.355-4.256,4.428-7.054,8.713-6.703l156.688,12.726
					c50.154,4.178,97.375,26.077,132.964,61.669c12.049,12.047,18.686,28.064,18.686,45.1
					C1067.108,1657.761,1038.492,1686.377,1003.32,1686.377z"/>
			</g>
			<g>
				<path style="fill:#FFAB00;" d="M1016.839,1518.172c-4.272,0-7.733-3.463-7.733-7.733v-355.444
					c0-68.224,53.354-124.733,121.467-128.648l110.094-6.328c4.309-0.274,7.922,3.013,8.166,7.277
					c0.243,4.265-3.015,7.917-7.277,8.163l-110.094,6.329c-59.938,3.444-106.889,53.17-106.889,113.207v355.444
					C1024.572,1514.709,1021.11,1518.172,1016.839,1518.172z"/>
			</g>
			<path style="fill:#FFAB00;" d="M1025.986,1193.026l-1.414-1.597H499.518c-6.598,0-11.584,5.979-10.401,12.469l56.059,307.682
				c0.695,3.818,4.021,6.592,7.902,6.592h471.496l1.414-1.596V1193.026z M535.474,1372.048h67.132l9.079,59.7h-65.334
				L535.474,1372.048z M1009.106,1273.76h-51.952v-66.862h51.952V1273.76z M957.154,1431.748v-59.7h51.952v59.7H957.154z
				 M1009.106,1442.705v60h-51.952v-60H1009.106z M957.154,1361.09v-76.374h51.952v76.374H957.154z M946.2,1273.76h-89.314v-66.862
				H946.2V1273.76z M946.2,1284.716v76.374h-89.314v-76.374H946.2z M946.2,1372.048v59.7h-89.314v-59.7H946.2z M946.2,1442.705v60
				h-89.314v-60H946.2z M848.547,1273.76H706.533l-7.676-66.862h149.69V1273.76z M848.547,1284.716v76.374H716.556l-8.766-76.374
				H848.547z M848.547,1372.048v59.7h-123.88l-6.854-59.7H848.547z M848.547,1442.705v60H732.81l-6.886-60H848.547z M686.5,1206.897
				l7.673,66.862h-92.222l-10.169-66.862H686.5z M695.433,1284.716l8.767,76.374h-88.966l-11.615-76.374H695.433z M600.938,1361.09
				h-67.46l-13.916-76.374h69.762L600.938,1361.09z M616.9,1372.048h88.556l6.853,59.7h-86.33L616.9,1372.048z M713.568,1442.705
				l6.887,60h-83.685l-9.125-60H713.568z M577.49,1206.897l10.167,66.862h-70.091l-12.181-66.862H577.49z M548.347,1442.705h65.005
				l9.125,60h-63.199L548.347,1442.705z"/>
			<path style="fill:#E76A53;" d="M1507.787,1743.118l-16.117,44.806l-37.896-20.424c0,0,1.916-6.466,5.807-9.136
				c3.888-2.674,14.855-60.056,14.855-60.056L1507.787,1743.118z"/>
			<path style="fill:#0A4F59;" d="M1853.813,1693.554l36.13-27.573c0,0-105.61-233.039-105.61-288.329
				c0-55.287,30.458-344.749-6.277-381.486c-36.736-36.737-35.938-77.402-35.938-77.402l-133.443,66.346
				c0,0,14.574,312.376,53.277,428.481C1700.65,1529.693,1853.813,1693.554,1853.813,1693.554z"/>
			<path style="fill:#073B43;" d="M1778.055,996.165c-28.209-28.208-34.281-58.714-35.582-71.366
				c-1.348-1.571-2.617-3.017-3.792-4.329l-130.008,64.639c0,0,10.376,222.378,36.866,361.617
				c52.539-86.929,156.93-174.217,149.213-279.924C1792.547,1031.994,1787.542,1005.652,1778.055,996.165z"/>
			<path style="fill:#0D5965;" d="M1637.446,993.401c0,0-191.12,298.554-202.177,356.607
				c-11.058,58.052,26.807,375.63,26.807,375.63l52.972,17.479c0,0,32.871-324.691,72.264-364.084
				c39.393-39.392,181.291-225.875,197.02-261.235c25.79-57.979-20.1-165.862-20.1-165.862L1637.446,993.401z"/>
			<path style="fill:#073B43;" d="M1764.232,951.936l-126.786,41.465c0,0-23.177,36.203-53.849,85.841
				c4.045,2.968,8.223,5.515,12.543,7.567c50.152,23.843,145.976-30.699,181.914-68.532c2.047-2.154,3.566-5.674,4.602-10.357
				C1774.555,976.212,1764.232,951.936,1764.232,951.936z"/>
			<path style="fill:#FFA283;" d="M1488.437,445.59c0,0-33.033,4.187-40.942,18.145c-7.908,13.955-10.233,109.797,8.84,118.636
				c19.076,8.84,70.717-23.728,73.973-63.273C1533.566,479.552,1488.437,445.59,1488.437,445.59z"/>
			<path style="opacity:0.68;fill:#FF7F4C;" d="M1447.494,463.734c7.909-13.957,40.942-18.144,40.942-18.144
				s21.199,15.955,33.489,38.725c-4.65,3.405-8.316,4.936-10.038,3.214c-6.127-6.128-48.405-3.298-68.297-7.31
				C1444.598,472.408,1445.936,466.481,1447.494,463.734z"/>
			<polygon style="fill:#FFA283;" points="1605.676,583.83 1530.307,519.098 1481.922,562.83 1522.399,624.242 			"/>
			<path style="opacity:0.68;fill:#FF7F4C;" d="M1481.922,562.83l48.385-43.732l11.316,9.717l-2.326,1.15
				c-4.896,2.42-7.325,8.006-5.736,13.231c5.397,17.744,13.349,57.267-16.371,73.142L1481.922,562.83z"/>
			<path style="fill:#03257D;" d="M1468.896,545.616c10.003,10.001,43.444-38.326,43.444-55.54
				c0-17.213-52.085-13.922-70.695-22.762c-18.609-8.839-30.508-44.987,0-58.014c30.509-13.027,47.723,1.396,47.723,1.396
				s28.844-8.375,54.432,0.93c25.59,9.305,28.381,29.311,28.381,29.311s15.352,0.465,19.073,28.844
				c3.724,28.38-21.208,83.444-21.208,83.444l-39.569-30.407l-0.749,0.453c-6.614,3.983-9.246,12.244-6.141,19.317
				c3.358,7.652,6.89,17.553,6.89,25.36c0,9.117-8.609,28.697-27.14,40.906c-21.782,14.354-51.508,4.181-60.742-20.215
				c-5.064-13.379-8.946-27.423-5.799-33.253C1443.575,542.823,1458.895,535.613,1468.896,545.616z"/>
			<path style="fill:#FFA283;" d="M1511.888,487.529c0,0,14.884-12.825,25.024-2.682c10.143,10.141,8.563,19.776-2.371,27.432
				c-10.933,7.652-27.244-5.286-27.244-5.286L1511.888,487.529z"/>
			<path style="fill:#FF5136;" d="M1559.668,581.507c0,0-69.11,121.633-69.11,204.565c0,82.93,33.428,242.607,105.583,275.191
				c50.152,22.649,145.976-29.161,181.914-65.098C1813.992,960.228,1689.593,528.983,1559.668,581.507z"/>
			<path style="fill:#D43421;" d="M1539.728,999.792c30.059-9.285,58.646-31.595,72.964-79.322
				c37.977-126.565-0.086-323.714-0.086-323.714l-10.76-16.127l-106.66,267.081C1502.072,898.183,1516.729,956.123,1539.728,999.792
				z"/>
			<path style="fill:#E76A53;" d="M1888.894,1663.027l27.115,27.415l-24.937,28.109c0,0-7.479-9.69-9.334-14.03
				c-1.854-4.34-24.528-20.765-24.528-20.765L1888.894,1663.027z"/>
			<path style="fill:#09434C;" d="M1956.215,1700.456c0,0-3.15-10.97-15.538-15.938c-12.389-4.968-28.063-8.02-30.231-7.091
				c-2.172,0.927-9.194,22.917-16.788,26.164c-7.594,3.245-25.497-1.419-25.497-1.419s-6.579,11.023-2.449,33.894
				c4.132,22.868-16.54,60.96-20.018,69.631c-3.479,8.671,9.404,15.994,9.404,15.994S1900.214,1816.776,1956.215,1700.456z"/>
			<polygon style="fill:#0099A0;" points="1900.604,1665.209 1852.924,1695.341 1838.615,1687.086 1889.029,1650.141 			"/>
			<path style="fill:#09434C;" d="M1484.322,1827.817c0,0,10.137-5.245,12.572-18.371c2.438-13.122,2.348-29.09,1.011-31.036
				c-1.334-1.944-24.275-4.509-28.952-11.313c-4.678-6.81-3.622-25.279-3.622-25.279s-12.103-4.285-33.714,4.263
				c-21.611,8.544-63.021-4.234-72.206-5.941c-9.186-1.707-13.836,12.363-13.836,12.363S1359.265,1795.772,1484.322,1827.817z"/>
			<polygon style="fill:#0099A0;" points="1515.948,1758.364 1453.774,1730.163 1455.897,1706.867 1528.157,1738.122 			"/>
			<path style="fill:#FFA283;" d="M1265.971,994.915c-4.648,4.65-58.476,4.877-71.312,4.877c-12.834,0-36.382,21.573-33.177,24.776
				c3.203,3.205,32.796-1.884,32.796-1.884s15.402,10.143,0.763,15.447c-14.642,5.304,5.009,7.8,12.833,7.8
				c7.823,0,67.011-13.906,67.011-13.906L1265.971,994.915z"/>
			<path style="fill:#FF5136;" d="M1612.605,596.756c0,0,3.731,251.514-37.732,322.007
				c-41.467,70.491-299.988,119.028-299.988,119.028l-26.039-58.472c0,0,204.392-63.322,218.215-100.641
				c13.822-37.32,40.945-221.262,55.338-254.438C1539.311,585.257,1602.93,545.614,1612.605,596.756z"/>
		</g>
	</g>
</g>
</svg>
